<?xml version="1.0" standalone="no"?>
<!DOCTYPE svg PUBLIC "-//W3C//DTD SVG 20010904//EN"
 "http://www.w3.org/TR/2001/REC-SVG-20010904/DTD/svg10.dtd">
<svg version="1.0" xmlns="http://www.w3.org/2000/svg"
 width="300.000000pt" height="300.000000pt" viewBox="0 0 300.000000 300.000000"
 preserveAspectRatio="xMidYMid meet">
<metadata>
Created by potrace 1.10, written by Peter Selinger 2001-2011
</metadata>
<g transform="translate(0.000000,300.000000) scale(0.100000,-0.100000)"
fill="#000000" stroke="none">
<path d="M1053 2580 c-3 -11 -10 -17 -15 -14 -17 11 -78 -6 -78 -21 0 -10 -10
-15 -30 -15 -20 0 -30 -5 -30 -15 0 -8 -7 -15 -15 -15 -10 0 -15 -10 -15 -31
0 -25 -4 -30 -22 -29 -59 5 -68 1 -68 -30 0 -27 -3 -30 -30 -30 -20 0 -30 -5
-30 -15 0 -8 -7 -15 -15 -15 -12 0 -15 -17 -15 -95 0 -78 3 -95 15 -95 8 0 15
-7 15 -15 0 -8 7 -15 15 -15 11 0 15 -12 15 -45 0 -33 4 -45 15 -45 8 0 15 -7
15 -15 0 -8 7 -15 15 -15 8 0 15 -7 15 -15 0 -10 10 -15 30 -15 30 0 30 0 30
-60 0 -47 3 -60 15 -60 10 0 15 -11 15 -35 0 -32 2 -35 30 -35 27 0 30 -3 30
-31 l0 -31 60 4 c53 4 60 2 60 -14 0 -10 7 -18 15 -18 8 0 15 -4 15 -10 0 -6
-27 -10 -60 -10 l-60 0 0 -45 c0 -33 4 -45 15 -45 8 0 15 -7 15 -15 0 -8 7
-15 15 -15 8 0 15 -7 15 -15 0 -8 7 -15 15 -15 8 0 15 -7 15 -15 0 -10 10 -15
30 -15 30 0 30 0 30 -60 0 -47 3 -60 15 -60 10 0 15 -10 15 -31 0 -16 -4 -28
-9 -25 -5 3 -12 -1 -15 -10 -9 -24 -7 -36 4 -29 6 4 8 11 5 16 -4 5 3 9 14 9
14 0 19 -5 16 -20 -2 -11 -7 -25 -10 -30 -3 -6 -1 -10 5 -10 7 0 14 9 17 20 4
14 14 20 34 20 19 0 29 5 29 15 0 8 7 15 15 15 11 0 15 -12 15 -45 0 -43 -1
-45 -30 -45 -20 0 -30 5 -30 15 0 8 -7 15 -15 15 -8 0 -15 -9 -15 -20 0 -13 5
-18 15 -14 20 8 19 -13 -3 -40 -18 -24 -31 -19 -45 14 -4 11 -6 11 -6 2 -1
-11 -4 -10 -15 1 -9 9 -12 24 -9 37 5 20 3 22 -14 18 -16 -4 -19 -2 -16 13 4
14 0 19 -16 19 -14 0 -19 5 -15 15 4 9 0 15 -9 15 -9 0 -14 -10 -14 -25 0 -15
5 -25 13 -25 8 0 14 -7 14 -15 0 -9 9 -15 21 -15 12 0 19 -5 17 -12 -6 -16
-98 -24 -98 -9 0 6 -5 11 -10 11 -6 0 -10 -7 -8 -16 2 -11 -11 -24 -34 -36
-28 -15 -38 -26 -38 -44 0 -23 -3 -24 -60 -24 -47 0 -60 3 -60 15 0 8 -7 15
-15 15 -8 0 -15 7 -15 17 0 9 -3 14 -6 10 -13 -13 -46 33 -51 73 -3 23 -12 44
-19 47 -8 3 -14 13 -14 23 0 10 -8 21 -17 24 -13 5 -14 9 -3 19 10 9 13 9 17
0 3 -7 15 -13 28 -13 13 0 26 -6 28 -12 3 -7 6 -3 6 10 1 13 -5 22 -14 22 -10
0 -15 10 -15 30 0 20 5 30 15 30 8 0 15 -4 15 -10 0 -5 7 -10 15 -10 12 0 14
4 5 19 -7 13 -7 22 0 26 5 3 10 1 10 -5 0 -6 4 -9 9 -6 5 4 12 0 14 -6 3 -7 6
0 6 15 1 16 -5 30 -14 33 -8 4 -15 11 -15 18 0 15 -58 37 -66 25 -9 -15 -24
-10 -24 9 0 15 -6 17 -37 13 -27 -4 -31 -6 -15 -9 27 -4 29 -18 2 -25 -11 -3
-20 -11 -20 -19 0 -7 -9 -19 -19 -25 -15 -10 -22 -9 -31 2 -16 19 -30 19 -30
0 0 -8 -7 -15 -15 -15 -8 0 -14 -5 -12 -12 1 -6 -6 -14 -15 -16 -12 -2 -18 3
-18 13 0 11 -7 15 -22 13 -12 -2 -23 3 -25 12 -4 13 -3 13 6 0 9 -13 11 -13
11 3 0 9 -7 17 -15 17 -10 0 -15 10 -15 31 0 24 -4 30 -15 25 -12 -4 -15 5
-15 49 0 42 -3 55 -15 55 -12 0 -15 15 -15 73 l0 74 -44 1 c-42 0 -44 -1 -40
-25 4 -19 0 -26 -16 -30 -19 -5 -20 -13 -20 -169 0 -134 3 -164 14 -164 16 0
26 -20 27 -58 l1 -27 8 25 c14 43 11 80 -5 80 -13 0 -15 23 -15 146 0 129 2
145 16 140 12 -5 15 0 12 27 -2 27 1 33 20 35 23 3 23 3 16 -72 -6 -65 -4 -76
10 -82 11 -4 16 -19 16 -50 0 -32 4 -44 15 -44 8 0 16 -8 16 -17 2 -33 4 -38
14 -40 5 -1 12 -10 16 -20 3 -10 11 -18 18 -18 6 0 11 -4 12 -10 0 -5 8 -13
18 -17 15 -5 17 -15 13 -65 -3 -32 -10 -61 -16 -65 -6 -4 -11 -13 -11 -20 0
-7 -16 -15 -35 -18 -27 -4 -31 -7 -17 -13 10 -4 32 -7 48 -7 22 0 29 -5 29
-20 0 -16 -7 -20 -30 -20 -17 0 -30 5 -30 13 0 8 -4 7 -10 -3 -17 -26 -11 -30
44 -30 40 0 55 -4 60 -16 3 -9 3 -20 0 -25 -3 -5 0 -8 7 -7 7 2 16 -12 20 -31
5 -23 25 -51 65 -87 37 -35 52 -54 41 -54 -9 0 -17 -7 -17 -15 0 -8 7 -15 15
-15 8 0 15 -9 15 -19 0 -22 31 -81 43 -81 17 0 5 -38 -18 -58 -14 -12 -25 -25
-26 -29 -8 -58 -4 -83 13 -89 14 -4 18 -15 18 -49 0 -40 -3 -44 -28 -50 -43
-9 -75 -72 -67 -129 4 -25 13 -47 21 -50 8 -3 14 -12 14 -21 0 -8 7 -15 15
-15 11 0 15 -12 15 -50 0 -38 -4 -50 -15 -50 -10 0 -15 -10 -15 -30 0 -22 -5
-30 -17 -30 -14 0 -15 -2 -4 -9 19 -12 5 -30 -19 -24 -11 3 -20 0 -20 -6 0 -6
14 -11 30 -11 28 0 30 -2 30 -38 0 -50 18 -59 124 -61 68 -1 93 2 106 14 15
14 18 14 30 0 15 -18 34 -19 60 -2 17 10 22 9 30 -3 7 -11 10 -5 10 22 0 28 3
36 14 32 11 -4 16 4 18 28 2 18 9 34 16 34 6 1 19 2 27 3 8 0 15 8 15 16 0 8
7 15 15 15 12 0 15 -16 15 -80 l0 -80 28 0 c15 0 33 5 40 12 8 8 18 9 36 0 30
-14 356 -15 356 -2 0 6 9 10 20 10 11 0 20 -4 20 -10 0 -13 86 -13 109 0 12 6
29 5 50 -3 28 -10 33 -9 47 11 15 22 17 22 29 5 12 -16 14 -15 13 15 -1 17 -5
32 -10 32 -4 0 -8 7 -8 15 0 8 5 15 10 15 6 0 10 -7 10 -15 0 -8 7 -15 15 -15
8 0 15 -9 15 -20 0 -16 7 -20 30 -20 19 0 30 -5 30 -14 0 -20 181 -21 235 -2
22 9 31 15 21 16 -11 0 -17 3 -13 6 3 4 14 3 24 -1 10 -5 23 -9 28 -9 6 -1 23
-8 39 -16 23 -11 30 -12 34 -2 2 8 30 13 80 14 l77 2 -67 3 c-49 3 -68 8 -68
17 0 8 7 16 15 20 8 3 15 12 15 21 0 10 10 15 29 15 24 0 28 4 29 28 4 85 1
126 -10 140 -8 9 -13 45 -13 95 0 57 -4 81 -13 83 -7 1 -8 0 -2 -3 5 -2 10
-34 10 -69 l0 -64 -45 0 c-45 0 -45 0 -45 34 0 24 5 36 18 40 9 3 5 4 -10 2
-32 -4 -38 17 -10 33 15 9 15 10 -5 11 -19 0 -23 5 -23 35 0 24 5 35 15 35 8
0 15 7 15 15 0 8 6 15 14 15 8 0 16 7 20 15 12 32 26 13 26 -35 0 -38 -4 -50
-15 -50 -9 0 -15 -9 -15 -25 0 -17 6 -25 17 -25 13 0 14 3 6 11 -9 9 -8 15 3
26 8 8 15 32 15 54 1 21 3 44 4 49 1 6 3 14 4 18 0 5 13 14 27 21 23 10 25 10
19 -9 -5 -14 -2 -20 9 -20 11 0 16 9 16 30 0 20 5 30 15 30 10 0 15 7 13 18
-2 11 3 17 15 16 9 -1 17 3 17 8 0 6 -13 7 -31 3 l-31 -7 16 31 c9 16 16 36
16 44 0 16 41 57 58 57 6 0 15 -8 21 -17 8 -15 10 -13 9 12 -1 48 1 55 17 55
11 0 15 12 15 45 0 33 4 45 15 45 8 0 15 7 15 15 0 8 7 15 15 15 8 0 15 8 15
18 0 10 7 19 15 19 8 0 15 -9 15 -19 0 -10 7 -18 15 -18 12 0 15 -17 15 -92 1
-68 3 -88 11 -75 5 9 8 21 5 25 -2 4 0 14 5 22 7 12 11 13 18 2 7 -11 9 -11
14 1 4 10 -2 17 -14 20 -17 5 -19 11 -14 51 4 37 2 46 -10 46 -10 0 -15 10
-15 30 0 24 -4 30 -21 30 -15 0 -19 5 -15 15 3 9 0 15 -9 15 -11 0 -15 13 -15
50 0 28 5 50 10 50 12 0 -9 41 -27 53 -20 13 -15 37 7 37 11 0 20 -6 20 -12 0
-9 4 -8 10 2 8 12 3 16 -23 20 l-32 5 22 20 c21 20 21 21 3 22 -11 1 -20 -4
-20 -13 0 -10 -13 -14 -45 -14 -33 0 -45 4 -45 15 0 8 -7 15 -15 15 -8 0 -15
7 -15 15 0 8 -7 15 -15 15 -7 0 -18 7 -23 16 -8 15 -10 15 -15 0 -7 -17 -33
-22 -39 -8 -5 13 -58 24 -58 12 0 -5 5 -10 10 -10 6 0 10 -5 10 -11 0 -5 -4
-7 -10 -4 -6 3 -7 -1 -4 -9 3 -9 1 -16 -5 -16 -21 0 -11 -25 19 -50 17 -14 30
-30 30 -37 0 -7 4 -13 9 -13 5 0 11 -9 14 -19 4 -15 -1 -21 -22 -24 -20 -3
-18 -4 11 -6 31 -1 35 -4 31 -21 -3 -12 -14 -20 -27 -20 -33 0 -66 -11 -66
-22 0 -5 13 -7 30 -3 29 6 30 5 30 -29 0 -25 -4 -36 -15 -36 -10 0 -15 -10
-15 -30 0 -25 -4 -30 -25 -30 -14 0 -25 -4 -25 -9 0 -15 -27 -20 -57 -11 -15
4 -22 9 -15 9 6 1 12 8 12 16 0 18 17 20 22 3 2 -6 10 -8 16 -4 17 10 15 26
-3 26 -11 0 -15 12 -15 45 0 33 -4 45 -15 45 -8 0 -15 7 -15 15 0 8 -7 15 -15
15 -9 0 -15 9 -15 24 0 13 -7 26 -15 30 -11 4 -15 -2 -15 -24 0 -17 -3 -29 -7
-29 -5 1 -25 1 -45 0 -27 -1 -38 -6 -38 -16 0 -8 -7 -15 -15 -15 -8 0 -15 7
-15 15 0 11 -12 15 -44 15 -30 0 -46 5 -50 15 -3 8 -17 15 -31 15 -31 0 -32
11 0 48 27 32 31 42 15 42 -5 0 -10 -7 -10 -15 0 -8 -7 -15 -15 -15 -8 0 -15
-6 -15 -13 0 -10 -13 -14 -45 -13 -25 1 -45 6 -45 11 0 6 -14 11 -30 12 -21 2
-30 -2 -30 -12 0 -8 -7 -15 -15 -15 -9 0 -15 9 -15 25 0 18 4 23 15 19 10 -4
15 0 15 15 0 12 6 21 13 21 8 0 14 7 14 15 0 8 -4 15 -9 15 -5 0 -4 9 2 19 5
11 10 33 10 50 0 21 5 31 15 31 12 0 15 13 15 60 0 60 0 60 30 60 20 0 30 5
30 15 0 8 7 15 15 15 8 0 15 7 15 15 0 8 7 15 15 15 8 0 15 7 15 15 0 8 7 15
15 15 11 0 15 12 15 45 l0 45 -60 0 c-47 0 -60 3 -60 15 0 8 -7 15 -15 15 -9
0 -15 9 -15 25 0 14 7 28 15 31 8 4 15 17 15 30 0 14 7 27 15 30 9 4 15 19 15
35 0 19 5 29 14 29 11 0 16 -14 18 -47 l3 -48 43 -3 42 -3 0 50 c0 39 4 51 15
51 10 0 15 10 15 30 0 20 5 30 15 30 8 0 15 7 15 15 0 8 7 15 15 15 8 0 15 7
15 15 0 8 7 15 15 15 8 0 15 7 15 15 0 8 7 15 15 15 11 0 15 12 15 45 0 33 4
45 15 45 8 0 15 7 15 15 0 8 7 15 15 15 12 0 15 17 15 95 0 78 -3 95 -15 95
-8 0 -15 7 -15 15 0 10 -10 15 -30 15 -27 0 -30 3 -30 30 0 29 -2 30 -45 30
-43 0 -45 1 -45 30 0 20 -5 30 -15 30 -8 0 -15 7 -15 15 0 10 -10 15 -30 15
-23 0 -30 5 -30 19 0 16 -7 18 -45 17 -37 -1 -45 2 -45 17 0 16 -9 18 -75 16
l-75 -2 0 -48 c0 -48 1 -49 30 -49 20 0 30 -5 30 -15 0 -10 10 -15 30 -15 20
0 30 -5 30 -15 0 -10 10 -15 30 -15 27 0 30 -3 30 -30 0 -20 5 -30 15 -30 8 0
15 -7 15 -15 0 -8 7 -15 15 -15 10 0 15 -10 15 -30 0 -20 5 -30 15 -30 10 0
15 -10 15 -30 0 -18 -6 -33 -15 -36 -8 -4 -15 -17 -15 -30 0 -19 -7 -26 -30
-30 -16 -4 -30 -13 -30 -20 0 -9 -11 -14 -30 -14 -29 0 -30 -2 -30 -45 0 -33
-4 -45 -15 -45 -11 0 -15 12 -15 45 0 33 -4 45 -15 45 -8 0 -15 7 -15 15 0 11
-12 15 -45 15 l-45 0 0 -45 c0 -33 -4 -45 -15 -45 -11 0 -15 -12 -15 -45 0
-33 -4 -45 -15 -45 -8 0 -15 -7 -15 -15 0 -10 -10 -15 -30 -15 -20 0 -30 5
-30 15 0 12 -13 15 -60 15 -47 0 -60 -3 -60 -15 0 -12 -13 -15 -60 -15 -47 0
-60 3 -60 15 0 10 -10 15 -30 15 -20 0 -30 5 -30 15 0 8 -7 15 -15 15 -10 0
-15 10 -15 30 0 20 -5 30 -15 30 -11 0 -15 12 -15 45 l0 45 -45 0 c-33 0 -45
-4 -45 -15 0 -8 -7 -15 -15 -15 -11 0 -15 -12 -15 -45 0 -33 -4 -45 -15 -45
-11 0 -15 12 -15 45 0 43 -1 45 -30 45 -19 0 -30 5 -30 14 0 9 -12 16 -27 18
-23 2 -29 8 -31 35 -2 23 -7 30 -18 26 -10 -4 -14 4 -14 31 0 25 4 36 15 36
10 0 15 10 15 30 0 20 5 30 15 30 8 0 15 7 15 15 0 8 7 15 15 15 10 0 15 10
15 30 0 27 3 30 30 30 20 0 30 5 30 15 0 10 10 15 30 15 20 0 30 5 30 15 0 14
14 19 48 18 8 -1 12 15 12 48 l0 49 -71 0 c-62 0 -71 -2 -76 -20z m117 -30 c0
-16 -7 -20 -30 -20 -20 0 -30 -5 -30 -15 0 -8 -7 -15 -15 -15 -10 0 -15 11
-15 35 0 35 0 35 45 35 38 0 45 -3 45 -20z m690 -15 c0 -24 -5 -35 -15 -35 -8
0 -15 7 -15 15 0 10 -10 15 -30 15 -23 0 -30 4 -30 20 0 17 7 20 45 20 45 0
45 0 45 -35z m-810 -30 c0 -24 -5 -35 -15 -35 -8 0 -15 7 -15 15 0 8 -7 15
-15 15 -8 0 -15 9 -15 20 0 16 7 20 30 20 28 0 30 -3 30 -35z m900 15 c0 -11
-7 -20 -15 -20 -8 0 -15 -7 -15 -15 0 -8 -7 -15 -15 -15 -10 0 -15 11 -15 35
0 32 2 35 30 35 23 0 30 -4 30 -20z m-990 -31 c0 -15 5 -19 15 -15 12 4 15 -3
15 -29 0 -24 -5 -35 -15 -35 -8 0 -15 -7 -15 -15 0 -8 -7 -15 -15 -15 -10 0
-15 10 -15 30 0 20 -5 30 -15 30 -8 0 -15 9 -15 20 0 13 5 18 15 14 10 -4 15
0 15 15 0 12 6 21 15 21 9 0 15 -9 15 -21z m1050 0 c0 -15 5 -19 15 -15 10 4
15 -1 15 -14 0 -11 -7 -20 -15 -20 -10 0 -15 -10 -15 -30 0 -20 -5 -30 -15
-30 -8 0 -15 7 -15 15 0 8 -7 15 -15 15 -10 0 -15 11 -15 35 0 26 3 33 15 29
10 -4 15 0 15 15 0 12 6 21 15 21 9 0 15 -9 15 -21z m-1110 -109 c0 -20 5 -30
15 -30 8 0 15 -9 15 -20 0 -11 -7 -20 -15 -20 -8 0 -15 9 -15 20 0 16 -7 20
-30 20 -20 0 -30 5 -30 15 0 8 -7 15 -15 15 -8 0 -15 7 -15 15 0 11 12 15 45
15 43 0 45 -1 45 -30z m1230 15 c0 -8 -7 -15 -15 -15 -8 0 -15 -7 -15 -15 0
-10 -10 -15 -30 -15 -23 0 -30 -4 -30 -20 0 -11 -7 -20 -15 -20 -8 0 -15 9
-15 20 0 11 7 20 15 20 10 0 15 10 15 30 0 29 2 30 45 30 33 0 45 -4 45 -15z
m-1290 -60 c0 -8 7 -15 15 -15 10 0 15 -10 15 -30 0 -20 5 -30 15 -30 8 0 15
-9 15 -20 0 -18 -5 -19 -45 -13 -42 5 -45 4 -45 -17 0 -16 -4 -20 -15 -16 -10
4 -15 -1 -15 -14 0 -11 -7 -20 -15 -20 -8 0 -15 9 -15 20 0 13 -5 18 -15 14
-12 -5 -15 5 -15 60 0 52 3 66 15 66 8 0 15 7 15 15 0 11 12 15 45 15 33 0 45
-4 45 -15z m1350 0 c0 -8 7 -15 15 -15 12 0 15 -14 15 -66 0 -55 -3 -65 -15
-60 -10 4 -15 -1 -15 -14 0 -11 -7 -20 -15 -20 -8 0 -15 9 -15 20 0 13 -5 18
-15 14 -11 -4 -15 0 -15 16 0 21 -3 22 -45 17 -40 -6 -45 -5 -45 13 0 11 7 20
15 20 10 0 15 10 15 30 0 20 5 30 15 30 8 0 15 7 15 15 0 11 12 15 45 15 33 0
45 -4 45 -15z m-1260 -172 c0 -34 1 -35 30 -31 24 4 30 1 30 -14 0 -10 -7 -18
-15 -18 -8 0 -15 -7 -15 -15 0 -10 -10 -15 -30 -15 -20 0 -30 -5 -30 -15 0 -8
-7 -15 -15 -15 -8 0 -15 -7 -15 -15 0 -8 -7 -15 -15 -15 -8 0 -15 7 -15 15 0
8 -7 15 -15 15 -8 0 -15 7 -15 15 0 8 -7 15 -15 15 -10 0 -15 10 -15 30 0 20
5 30 15 30 8 0 15 7 15 15 0 8 7 15 15 15 8 0 15 8 15 18 0 13 9 17 45 19 l45
1 0 -35z m1170 13 c0 -12 5 -16 15 -12 10 4 15 -1 15 -14 0 -11 7 -20 15 -20
10 0 15 -10 15 -30 0 -20 -5 -30 -15 -30 -8 0 -15 -7 -15 -15 0 -8 -7 -15 -15
-15 -8 0 -15 -7 -15 -15 0 -8 -7 -15 -15 -15 -8 0 -15 7 -15 15 0 8 -7 15 -15
15 -8 0 -15 7 -15 15 0 10 -10 15 -30 15 -20 0 -30 5 -30 15 0 8 -7 15 -15 15
-8 0 -15 8 -15 18 0 15 6 18 30 14 28 -4 30 -2 30 30 0 35 0 35 45 34 37 -1
45 -4 45 -20z m-900 -91 c0 -33 4 -45 15 -45 8 0 15 -7 15 -15 0 -8 -7 -15
-15 -15 -8 0 -15 7 -15 15 0 10 -10 15 -30 15 -27 0 -30 3 -30 30 0 20 5 30
15 30 8 0 15 7 15 15 0 8 7 15 15 15 11 0 15 -12 15 -45z m570 30 c0 -8 7 -15
15 -15 11 0 15 -12 15 -45 l0 -45 -45 0 c-33 0 -45 4 -45 15 0 8 7 15 15 15
11 0 15 12 15 45 0 33 4 45 15 45 8 0 15 -7 15 -15z m-720 -60 l0 -45 60 0
c47 0 60 -3 60 -15 0 -8 7 -15 15 -15 10 0 15 -10 15 -30 0 -20 5 -30 15 -30
8 0 15 -8 15 -18 0 -15 6 -18 30 -14 23 3 30 0 30 -12 0 -9 -7 -16 -15 -16 -8
0 -15 -9 -15 -20 0 -11 7 -20 15 -20 8 0 15 7 15 15 0 8 7 15 15 15 8 0 15 9
15 20 0 11 -7 20 -15 20 -8 0 -15 7 -15 15 0 8 -7 15 -15 15 -8 0 -15 7 -15
15 0 8 -7 15 -15 15 -8 0 -15 7 -15 15 0 8 7 15 15 15 8 0 15 -7 15 -15 0 -10
10 -15 30 -15 20 0 30 -5 30 -15 0 -8 7 -15 15 -15 8 0 15 -7 15 -15 0 -8 7
-15 15 -15 8 0 15 -9 15 -20 0 -11 7 -20 15 -20 10 0 15 11 15 35 0 32 2 35
30 35 23 0 30 -4 30 -20 0 -13 -5 -18 -15 -14 -10 4 -15 0 -15 -15 0 -14 5
-19 15 -15 10 4 15 0 15 -15 0 -12 6 -21 15 -21 8 0 15 -7 15 -16 0 -12 7 -15
30 -12 25 4 30 1 30 -15 0 -13 5 -17 15 -13 10 4 15 -1 15 -14 0 -16 -7 -20
-30 -20 -20 0 -30 5 -30 15 0 8 -7 15 -15 15 -8 0 -15 7 -15 15 0 10 -10 15
-30 15 -20 0 -30 -5 -30 -15 0 -8 -7 -15 -15 -15 -8 0 -15 -7 -15 -15 0 -10
-10 -15 -30 -15 -20 0 -30 5 -30 15 0 8 7 15 15 15 8 0 15 7 15 15 0 8 7 15
15 15 8 0 15 8 15 18 0 14 -8 19 -30 19 -22 0 -30 -5 -30 -19 0 -13 -8 -18
-30 -18 -20 0 -30 -5 -30 -15 0 -10 -10 -15 -30 -15 -20 0 -30 -5 -30 -15 0
-12 -13 -15 -60 -15 -53 0 -60 2 -60 20 0 16 5 19 30 14 26 -6 30 -3 30 15 0
17 4 20 30 15 26 -6 30 -3 30 14 0 15 -5 20 -15 16 -10 -4 -15 0 -15 15 0 14
-5 19 -15 15 -10 -4 -15 0 -15 15 0 12 -6 21 -15 21 -8 0 -15 7 -15 15 0 8 7
15 15 15 8 0 15 7 15 15 0 8 -7 15 -15 15 -8 0 -15 7 -15 15 0 11 -12 15 -45
15 -33 0 -45 -4 -45 -15 0 -10 10 -15 30 -15 27 0 30 -3 30 -30 0 -20 5 -30
15 -30 8 0 15 -9 15 -20 0 -17 -7 -20 -45 -20 -45 0 -45 0 -45 35 0 32 -2 35
-30 35 -20 0 -30 5 -30 15 0 10 -10 15 -30 15 -19 0 -30 -5 -30 -14 0 -8 -7
-16 -15 -20 -12 -4 -15 4 -15 44 0 38 4 50 15 50 8 0 15 7 15 15 0 10 10 15
30 15 20 0 30 5 30 15 0 8 7 15 15 15 8 0 15 7 15 15 0 8 7 15 15 15 11 0 15
-12 15 -45z m870 30 c0 -8 7 -15 15 -15 8 0 15 -7 15 -15 0 -10 10 -15 30 -15
20 0 30 -5 30 -15 0 -8 7 -15 15 -15 11 0 15 -12 15 -50 0 -40 -3 -48 -15 -44
-8 4 -15 12 -15 20 0 9 -11 14 -30 14 -20 0 -30 -5 -30 -15 0 -10 -10 -15 -30
-15 -28 0 -30 -3 -30 -36 0 -28 -3 -35 -15 -30 -12 4 -15 -3 -15 -29 0 -24 -5
-35 -15 -35 -8 0 -15 -7 -15 -15 0 -8 -7 -15 -15 -15 -11 0 -15 12 -15 50 0
38 -4 50 -15 50 -9 0 -15 -9 -15 -21 0 -15 -5 -19 -15 -15 -10 4 -15 -1 -15
-14 0 -11 -7 -20 -15 -20 -8 0 -15 -7 -15 -15 0 -10 -10 -15 -30 -15 -23 0
-30 4 -30 20 0 13 5 18 15 14 11 -5 15 1 15 25 0 28 -3 31 -30 31 -20 0 -30
-5 -30 -15 0 -8 -7 -15 -15 -15 -8 0 -15 7 -15 15 0 8 -7 15 -15 15 -8 0 -15
-7 -15 -15 0 -10 -10 -15 -30 -15 -23 0 -30 4 -30 20 0 16 7 20 30 20 21 0 30
5 30 16 0 10 -6 14 -15 10 -10 -4 -15 1 -15 14 0 11 -7 20 -15 20 -8 0 -15 7
-15 15 0 10 10 15 30 15 20 0 30 -5 30 -15 0 -10 10 -15 30 -15 20 0 30 -5 30
-15 0 -8 -7 -15 -15 -15 -8 0 -15 -7 -15 -15 0 -8 7 -15 15 -15 8 0 15 7 15
15 0 8 7 15 15 15 8 0 15 7 15 15 0 8 7 15 15 15 8 0 15 7 15 15 0 10 10 15
30 15 20 0 30 5 30 15 0 8 7 15 15 15 8 0 15 -7 15 -15 0 -8 7 -15 15 -15 8 0
15 7 15 15 0 8 7 15 15 15 8 0 15 7 15 15 0 10 10 15 30 15 29 0 30 2 30 45 0
33 4 45 15 45 8 0 15 -7 15 -15z m-960 -215 c0 -38 -4 -50 -15 -50 -11 0 -15
12 -15 50 0 38 4 50 15 50 11 0 15 -12 15 -50z m1050 0 c0 -38 -4 -50 -15 -50
-11 0 -15 12 -15 50 0 38 4 50 15 50 11 0 15 -12 15 -50z m-990 -10 c0 -20 5
-30 15 -30 10 0 15 -11 15 -35 0 -32 -2 -35 -30 -35 -23 0 -30 4 -30 20 0 13
5 18 15 14 9 -4 15 0 15 10 0 9 -7 16 -15 16 -10 0 -15 11 -15 35 0 24 5 35
15 35 10 0 15 -10 15 -30z m120 -50 c0 -16 -7 -20 -30 -20 -39 0 -41 27 -2 33
15 2 28 5 30 6 1 0 2 -8 2 -19z m570 -85 c0 -8 -7 -15 -15 -15 -8 0 -15 -7
-15 -15 0 -10 -10 -15 -30 -15 -20 0 -30 5 -30 15 0 9 10 15 26 15 14 0 32 7
40 15 9 8 17 15 20 15 2 0 4 -7 4 -15z m90 0 c0 -8 7 -15 15 -15 8 0 15 -7 15
-15 0 -8 7 -15 15 -15 8 0 15 -7 15 -15 0 -10 10 -15 30 -15 20 0 30 -5 30
-15 0 -8 7 -15 15 -15 8 0 15 7 15 15 0 8 7 15 15 15 8 0 15 -7 15 -15 0 -8
-7 -15 -15 -15 -8 0 -15 -7 -15 -15 0 -8 -7 -15 -15 -15 -8 0 -15 -7 -15 -15
0 -8 -7 -15 -15 -15 -8 0 -15 -7 -15 -15 0 -10 -10 -15 -30 -15 -30 0 -30 0
-30 -60 0 -47 -3 -60 -15 -60 -11 0 -15 -12 -15 -45 0 -33 -4 -45 -15 -45 -8
0 -15 7 -15 15 0 8 -7 15 -15 15 -8 0 -15 7 -15 15 0 8 -7 15 -15 15 -8 0 -15
7 -15 15 0 8 7 15 15 15 8 0 15 -7 15 -15 0 -8 7 -15 15 -15 8 0 15 7 15 15 0
8 7 15 15 15 12 0 15 13 15 60 0 47 3 60 15 60 8 0 15 7 15 15 0 10 10 15 30
15 20 0 30 5 30 15 0 8 7 15 15 15 8 0 15 7 15 15 0 10 -10 15 -30 15 -20 0
-30 5 -30 15 0 8 -7 15 -15 15 -8 0 -15 7 -15 15 0 8 -7 15 -15 15 -8 0 -15 7
-15 15 0 8 -7 15 -15 15 -8 0 -15 7 -15 15 0 8 7 15 15 15 8 0 15 -7 15 -15z
m-300 -20 c0 -16 6 -25 15 -25 8 0 15 5 15 10 0 6 14 10 30 10 17 0 30 -4 30
-10 0 -5 7 -10 15 -10 8 0 15 -7 15 -15 0 -8 7 -15 15 -15 12 0 15 -17 15 -90
0 -73 3 -90 15 -90 11 0 15 12 15 45 0 33 4 45 15 45 12 0 15 -13 15 -60 0
-47 -3 -60 -15 -60 -10 0 -15 -10 -15 -30 0 -20 -5 -30 -15 -30 -10 0 -15 -10
-15 -30 0 -20 -5 -30 -15 -30 -8 0 -15 -7 -15 -15 0 -10 -10 -15 -30 -15 -20
0 -30 -5 -30 -15 0 -8 -7 -15 -15 -15 -8 0 -15 -7 -15 -15 0 -11 -12 -15 -45
-15 -33 0 -45 4 -45 15 0 8 -7 15 -15 15 -8 0 -15 7 -15 15 0 10 -10 15 -30
15 -20 0 -30 5 -30 15 0 8 -7 15 -15 15 -11 0 -15 12 -15 45 0 33 -4 45 -15
45 -8 0 -15 7 -15 15 0 8 -7 15 -15 15 -10 0 -15 10 -15 30 0 20 -5 30 -15 30
-11 0 -15 12 -15 45 0 33 4 45 15 45 11 0 15 -12 15 -45 0 -33 4 -45 15 -45
12 0 15 15 15 75 0 60 3 75 15 75 8 0 15 7 15 15 0 10 -10 15 -30 15 -20 0
-30 5 -30 15 0 10 10 15 30 15 20 0 30 -5 30 -15 0 -10 10 -15 30 -15 17 0 30
4 30 9 0 4 19 11 42 14 24 3 44 11 46 16 7 22 32 11 32 -14z m-300 -15 c0 -5
-7 -10 -15 -10 -8 0 -15 -7 -15 -15 0 -8 -7 -15 -15 -15 -8 0 -15 -7 -15 -15
0 -10 -10 -15 -30 -15 -20 0 -30 -5 -30 -15 0 -8 7 -15 15 -15 8 0 15 -7 15
-15 0 -10 10 -15 30 -15 20 0 30 -5 30 -15 0 -8 7 -15 15 -15 12 0 15 -13 15
-60 0 -47 3 -60 15 -60 8 0 15 -7 15 -15 0 -8 7 -15 15 -15 8 0 15 7 15 15 0
8 7 15 15 15 8 0 15 -7 15 -15 0 -8 -7 -15 -15 -15 -8 0 -15 -7 -15 -15 0 -8
-7 -15 -15 -15 -8 0 -15 -7 -15 -15 0 -8 -7 -15 -15 -15 -11 0 -15 12 -15 45
0 33 -4 45 -15 45 -12 0 -15 13 -15 60 0 60 0 60 -30 60 -20 0 -30 5 -30 15 0
8 -7 15 -15 15 -8 0 -15 7 -15 15 0 8 -7 15 -15 15 -8 0 -15 7 -15 15 0 8 -7
15 -15 15 -8 0 -15 7 -15 15 0 8 7 15 15 15 8 0 15 -7 15 -15 0 -8 7 -15 15
-15 8 0 15 7 15 15 0 10 10 15 30 15 20 0 30 5 30 15 0 8 7 15 15 15 8 0 15 5
15 10 0 6 7 10 15 10 8 0 15 -4 15 -10z m593 -40 l46 -51 -39 -36 c-34 -29
-40 -42 -41 -77 -2 -40 -2 -39 -8 11 -5 38 -14 60 -34 81 -15 15 -27 39 -27
52 0 22 35 70 51 70 3 0 27 -23 52 -50z m-546 4 c7 -20 -51 -76 -72 -68 -12 5
-9 14 16 45 33 42 46 48 56 23z m-497 -184 c0 -16 -7 -20 -30 -20 -27 0 -30
-3 -30 -30 0 -20 -5 -30 -15 -30 -8 0 -15 -7 -15 -15 0 -8 -7 -15 -15 -15 -10
0 -15 -10 -15 -30 0 -20 5 -30 15 -30 10 0 15 -10 15 -30 0 -20 5 -30 15 -30
8 0 15 -8 15 -17 0 -15 -9 -18 -45 -18 -37 0 -45 3 -45 17 0 10 -7 18 -15 18
-11 0 -15 12 -15 45 0 33 4 45 15 45 11 0 15 12 15 50 0 40 3 48 15 44 10 -4
15 0 15 15 0 14 5 19 15 15 10 -4 15 0 15 15 0 18 6 21 45 21 38 0 45 -3 45
-20z m-180 -75 c0 -24 -5 -35 -15 -35 -12 0 -15 -15 -15 -75 0 -60 3 -75 15
-75 10 0 15 -11 15 -35 0 -24 -5 -35 -15 -35 -8 0 -15 9 -15 20 0 13 -5 18
-15 14 -13 -5 -15 9 -15 90 0 79 3 96 15 96 10 0 15 11 15 35 0 24 5 35 15 35
10 0 15 -11 15 -35z m1140 -60 c0 -8 7 -15 15 -15 8 0 15 -7 15 -15 0 -10 10
-15 30 -15 20 0 30 -5 30 -15 0 -8 -7 -15 -15 -15 -8 0 -15 -7 -15 -16 0 -8
-5 -12 -11 -9 -6 4 -13 -2 -16 -14 -6 -24 -33 -29 -33 -6 0 8 -7 15 -15 15
-12 0 -15 13 -15 60 0 47 3 60 15 60 8 0 15 -7 15 -15z m780 -50 c0 -8 7 -15
15 -15 8 0 15 -7 15 -15 0 -8 7 -15 15 -15 11 0 15 -12 15 -50 0 -40 3 -48 15
-44 12 5 15 -4 15 -45 0 -39 -4 -51 -15 -51 -8 0 -15 -7 -15 -15 0 -11 -12
-15 -45 -15 -33 0 -45 4 -45 15 0 8 7 15 15 15 10 0 15 11 15 35 0 26 3 33 15
29 12 -5 15 2 15 31 0 29 -3 36 -15 31 -10 -4 -15 1 -15 15 0 15 -5 19 -15 15
-12 -4 -15 3 -15 30 0 35 -1 36 -30 32 -24 -4 -30 -1 -30 14 0 15 8 18 45 18
33 0 45 -4 45 -15z m-1140 -55 c0 -20 -5 -30 -15 -30 -8 0 -15 -7 -15 -15 0
-8 -7 -15 -15 -15 -8 0 -15 -7 -15 -15 0 -10 -10 -15 -30 -15 -20 0 -30 5 -30
15 0 10 10 15 30 15 20 0 30 5 30 15 0 8 7 15 15 15 10 0 15 10 15 30 0 20 5
30 15 30 10 0 15 -10 15 -30z m300 0 c0 -20 5 -30 15 -30 8 0 15 -7 15 -15 0
-8 -7 -15 -15 -15 -8 0 -15 7 -15 15 0 8 -7 15 -15 15 -10 0 -15 10 -15 30 0
20 5 30 15 30 10 0 15 -10 15 -30z m960 -20 c0 -20 5 -30 15 -30 12 0 15 -17
15 -95 0 -78 -3 -95 -15 -95 -8 0 -15 -7 -15 -15 0 -8 -7 -15 -15 -15 -10 0
-15 10 -15 30 0 20 5 30 15 30 12 0 15 15 15 75 0 60 -3 75 -15 75 -10 0 -15
11 -15 35 0 24 5 35 15 35 10 0 15 -10 15 -30z m-1200 -55 c0 -60 -3 -75 -15
-75 -8 0 -15 7 -15 15 0 8 -7 15 -15 15 -10 0 -15 10 -15 30 0 20 5 30 15 30
10 0 15 10 15 30 0 20 5 30 15 30 12 0 15 -15 15 -75z m180 45 c0 -20 5 -30
15 -30 10 0 15 -10 15 -30 0 -27 -3 -30 -30 -30 -30 0 -30 0 -30 60 0 47 3 60
15 60 10 0 15 -10 15 -30z m-120 -75 c0 -60 -3 -75 -15 -75 -12 0 -15 15 -15
75 0 60 3 75 15 75 12 0 15 -15 15 -75z m60 0 c0 -60 -3 -75 -15 -75 -12 0
-15 15 -15 75 0 60 3 75 15 75 12 0 15 -15 15 -75z m-810 19 c0 -35 1 -36 30
-30 25 5 30 2 30 -14 0 -11 -7 -20 -15 -20 -8 0 -15 -7 -15 -15 0 -10 -10 -15
-30 -15 -20 0 -30 5 -30 15 0 8 -7 15 -15 15 -8 0 -15 7 -15 15 0 8 -7 15 -15
15 -10 0 -15 11 -15 35 0 35 0 35 45 35 l45 0 0 -36z m420 21 c0 -8 6 -15 14
-15 7 0 16 -9 19 -20 4 -17 11 -19 31 -14 22 5 26 3 26 -16 0 -16 4 -20 15
-16 10 4 15 -1 15 -15 0 -19 5 -21 45 -17 38 3 45 0 45 -14 0 -15 -9 -18 -45
-18 -33 0 -45 4 -45 15 0 10 -10 15 -30 15 -20 0 -30 5 -30 15 0 8 -7 15 -15
15 -8 0 -15 7 -15 15 0 8 -7 15 -15 15 -8 0 -15 7 -15 15 0 11 -12 15 -45 15
-33 0 -45 -4 -45 -15 0 -10 -10 -15 -30 -15 -27 0 -30 -3 -30 -30 0 -20 -5
-30 -15 -30 -11 0 -15 12 -15 51 l0 52 30 -6 c25 -6 30 -3 30 13 0 18 7 20 60
20 47 0 60 -3 60 -15z m780 -35 c0 -19 -7 -20 -105 -20 -87 0 -105 -3 -105
-15 0 -8 -7 -15 -15 -15 -8 0 -15 -7 -15 -15 0 -10 -10 -15 -30 -15 -20 0 -30
-5 -30 -15 0 -8 -7 -15 -15 -15 -8 0 -15 -7 -15 -15 0 -8 -7 -15 -15 -15 -8 0
-15 -7 -15 -15 0 -13 -22 -15 -135 -15 l-135 0 0 -95 c0 -78 -3 -95 -15 -95
-12 0 -15 17 -15 95 0 78 -3 95 -15 95 -8 0 -15 -7 -15 -15 0 -10 -10 -15 -30
-15 -28 0 -30 -3 -30 -35 0 -24 -5 -35 -15 -35 -10 0 -15 11 -15 35 0 24 5 35
15 35 8 0 15 7 15 15 0 8 7 15 15 15 8 0 15 7 15 15 0 12 15 15 75 15 60 0 75
3 75 15 0 11 12 15 45 15 33 0 45 -4 45 -15 0 -10 10 -15 30 -15 20 0 30 5 30
15 0 10 10 15 30 15 20 0 30 5 30 15 0 8 7 15 15 15 8 0 15 7 15 15 0 10 10
15 30 15 23 0 30 4 30 20 0 16 5 19 30 14 26 -6 30 -4 30 15 0 20 5 21 105 21
98 0 105 -1 105 -20z m-1320 -30 c0 -11 7 -20 15 -20 8 0 15 -7 15 -15 0 -8 7
-15 15 -15 10 0 15 -10 15 -30 0 -20 -5 -30 -15 -30 -8 0 -15 7 -15 15 0 8 -7
15 -15 15 -8 0 -15 7 -15 15 0 8 -7 15 -15 15 -10 0 -15 11 -15 35 0 24 5 35
15 35 8 0 15 -9 15 -20z m510 1 c0 -5 8 -12 18 -14 9 -3 2 -5 -15 -6 -23 -1
-33 4 -33 14 0 8 7 15 15 15 8 0 15 -4 15 -9z m870 -6 c0 -10 10 -15 30 -15
20 0 30 -5 30 -15 0 -10 10 -15 30 -15 20 0 30 -5 30 -15 0 -10 -10 -15 -30
-15 -20 0 -30 5 -30 15 0 10 -10 15 -30 15 -20 0 -30 5 -30 15 0 10 -11 15
-32 16 -18 1 -25 3 -15 6 9 2 17 9 17 14 0 5 7 9 15 9 8 0 15 -7 15 -15z
m-1080 -27 c0 -10 7 -18 15 -18 8 0 15 -7 15 -15 0 -8 -7 -15 -15 -15 -8 0
-15 7 -15 15 0 11 -12 15 -45 15 -36 0 -45 3 -45 18 0 14 9 17 45 17 36 0 45
-3 45 -17z m1350 -4 c0 -8 7 -14 15 -14 10 0 15 -10 15 -30 0 -20 -5 -30 -15
-30 -8 0 -15 -7 -15 -15 0 -8 -7 -15 -15 -15 -8 0 -15 -7 -15 -15 0 -10 -10
-15 -30 -15 -20 0 -30 -5 -30 -15 0 -8 -7 -15 -15 -15 -8 0 -15 -7 -15 -15 0
-10 -10 -15 -30 -15 -23 0 -30 -4 -30 -20 0 -16 -5 -19 -30 -13 l-30 6 0 -52
0 -51 60 0 c53 0 60 2 60 20 0 16 5 19 30 14 26 -6 30 -4 30 16 0 21 3 22 45
17 40 -6 45 -5 45 13 0 16 7 20 30 20 28 0 30 -3 30 -36 0 -28 -3 -35 -15 -30
-10 4 -15 -1 -15 -14 0 -11 -7 -20 -15 -20 -8 0 -15 -7 -15 -15 0 -11 -12 -15
-45 -15 -33 0 -45 -4 -45 -15 0 -11 -12 -15 -45 -15 -33 0 -45 -4 -45 -15 0
-11 -12 -15 -45 -15 l-45 0 0 -45 0 -45 60 0 c47 0 60 3 60 15 0 12 13 15 60
15 47 0 60 3 60 15 0 8 7 15 15 15 11 0 15 -12 15 -50 l0 -49 -30 6 c-25 5
-30 2 -30 -15 0 -17 -5 -19 -45 -14 -40 4 -45 2 -45 -15 0 -18 -7 -20 -75 -20
-68 0 -75 2 -75 20 0 13 -5 17 -15 13 -13 -5 -15 21 -15 199 l0 205 30 0 c20
0 30 5 30 15 0 10 10 15 30 15 20 0 30 5 30 15 0 10 10 15 30 15 20 0 30 5 30
15 0 8 7 15 15 15 8 0 15 7 15 15 0 8 7 15 15 15 8 0 15 7 15 15 0 8 -7 15
-15 15 -8 0 -15 8 -15 18 0 14 7 17 45 14 30 -3 45 -9 45 -18z m-390 1 c0 -8
7 -15 15 -15 8 0 15 -7 15 -15 0 -8 7 -15 15 -15 10 0 15 -10 15 -30 0 -20 5
-30 15 -30 8 0 15 7 15 15 0 8 7 15 15 15 10 0 15 -10 15 -30 0 -27 -3 -30
-30 -30 -20 0 -30 5 -30 15 0 8 -7 15 -15 15 -10 0 -15 10 -15 30 0 20 -5 30
-15 30 -8 0 -15 7 -15 15 0 11 -12 15 -45 15 -33 0 -45 -4 -45 -15 0 -10 -10
-15 -30 -15 -30 0 -30 0 -30 -60 0 -47 3 -60 15 -60 8 0 15 -7 15 -15 0 -8 7
-15 15 -15 8 0 15 -7 15 -15 0 -10 10 -15 30 -15 20 0 30 -5 30 -15 0 -8 7
-15 15 -15 8 0 15 -7 15 -15 0 -8 7 -15 15 -15 8 0 15 -7 15 -15 0 -8 7 -15
15 -15 12 0 15 -14 15 -65 0 -51 -3 -65 -15 -65 -12 0 -15 13 -15 60 0 47 -3
60 -15 60 -8 0 -15 7 -15 15 0 8 -7 15 -15 15 -8 0 -15 7 -15 15 0 8 -3 15 -7
15 -5 0 -18 3 -30 6 -17 5 -23 2 -23 -10 0 -9 7 -16 15 -16 8 0 15 -7 15 -15
0 -8 7 -15 15 -15 8 0 15 -9 15 -20 0 -11 -7 -20 -15 -20 -8 0 -15 7 -15 15 0
8 -7 15 -15 15 -8 0 -15 7 -15 15 0 8 -7 15 -15 15 -9 0 -15 9 -15 21 0 15 -5
19 -15 15 -10 -4 -15 1 -15 14 0 11 -7 20 -15 20 -8 0 -15 -9 -15 -20 0 -17
-7 -20 -45 -20 -38 0 -45 3 -45 20 0 16 7 20 30 20 20 0 30 5 30 15 0 8 7 15
15 15 11 0 15 12 15 45 0 33 -4 45 -15 45 -10 0 -15 10 -15 30 0 20 5 30 15
30 8 0 15 7 15 15 0 10 10 15 30 15 20 0 30 5 30 15 0 12 13 15 60 15 47 0 60
-3 60 -15z m-690 -30 c0 -11 -12 -15 -45 -15 -33 0 -45 -4 -45 -15 0 -11 -12
-15 -45 -15 -33 0 -45 4 -45 15 0 8 7 15 15 15 8 0 15 7 15 15 0 12 15 15 75
15 60 0 75 -3 75 -15z m-390 -60 c0 -33 4 -45 15 -45 8 0 15 -9 15 -20 0 -13
-5 -18 -15 -14 -8 4 -15 12 -15 20 0 9 -11 14 -30 14 -20 0 -30 -5 -30 -15 0
-8 7 -15 15 -15 11 0 15 -12 15 -50 0 -38 -4 -50 -15 -50 -11 0 -15 12 -15 50
0 38 -4 50 -15 50 -11 0 -15 12 -15 45 0 33 4 45 15 45 8 0 15 7 15 15 0 10
10 15 30 15 29 0 30 -2 30 -45z m90 30 c0 -11 12 -15 45 -15 33 0 45 -4 45
-15 0 -8 7 -15 15 -15 8 0 15 -7 15 -15 0 -11 12 -15 45 -15 l45 0 0 -200 c0
-171 -2 -200 -15 -200 -8 0 -15 -8 -15 -17 0 -16 -10 -18 -75 -18 -67 0 -75 2
-75 18 0 16 -6 19 -45 15 -38 -3 -45 0 -45 14 0 13 -8 18 -30 18 -20 0 -30 5
-30 15 0 8 -7 15 -15 15 -10 0 -15 10 -15 30 0 20 -5 30 -15 30 -10 0 -15 10
-15 30 0 20 5 30 15 30 8 0 15 8 15 18 0 14 8 19 30 19 29 0 30 -2 30 -49 0
-36 4 -48 15 -48 8 0 15 -7 15 -15 0 -11 12 -15 45 -15 33 0 45 -4 45 -15 0
-12 13 -15 60 -15 l60 0 0 45 0 45 -45 0 c-33 0 -45 4 -45 15 0 10 -10 15 -30
15 -29 0 -30 1 -30 50 0 38 4 50 15 50 8 0 15 -9 15 -20 0 -18 7 -20 60 -20
l60 0 0 50 c0 49 -1 50 -30 50 -20 0 -30 5 -30 15 0 11 -12 15 -45 15 -33 0
-45 4 -45 15 0 8 -7 15 -15 15 -8 0 -15 7 -15 15 0 8 -7 15 -15 15 -10 0 -15
10 -15 30 0 27 3 30 30 30 20 0 30 -5 30 -15z m985 -29 c9 -19 25 -42 36 -52
10 -9 19 -21 19 -27 0 -8 -38 -47 -46 -47 -13 0 -87 46 -91 56 -3 8 -11 14
-19 14 -21 0 -17 20 4 21 10 0 12 3 5 6 -20 7 -15 29 10 46 37 27 64 21 82
-17z m665 -16 c0 -20 -5 -30 -15 -30 -8 0 -15 -7 -15 -15 0 -8 -7 -15 -15 -15
-8 0 -15 -7 -15 -15 0 -10 -10 -15 -30 -15 -20 0 -30 5 -30 15 0 8 -7 15 -15
15 -8 0 -15 7 -15 15 0 10 10 15 30 15 27 0 30 3 30 30 0 29 2 30 45 30 43 0
45 -1 45 -30z m-1386 11 c3 -5 -1 -14 -10 -21 -11 -10 -18 -10 -27 -1 -9 9 -9
14 3 21 19 12 27 12 34 1z m336 -56 c0 -8 -7 -15 -15 -15 -8 0 -15 -7 -15 -15
0 -10 -10 -15 -30 -15 -20 0 -30 5 -30 15 0 10 10 15 30 15 20 0 30 5 30 15 0
8 7 15 15 15 8 0 15 -7 15 -15z m60 0 c0 -10 10 -15 30 -15 20 0 30 -5 30 -15
0 -10 -10 -15 -30 -15 -20 0 -30 5 -30 15 0 8 -7 15 -15 15 -8 0 -15 7 -15 15
0 8 7 15 15 15 8 0 15 -7 15 -15z m1050 -15 c0 -20 -5 -30 -15 -30 -8 0 -15
-9 -15 -20 0 -13 -5 -18 -15 -14 -10 4 -15 0 -15 -15 0 -12 -6 -21 -15 -21
-10 0 -15 11 -15 35 0 24 5 35 15 35 8 0 15 7 15 15 0 8 7 15 15 15 8 0 15 7
15 15 0 8 7 15 15 15 10 0 15 -10 15 -30z m-240 -18 c0 -14 -7 -17 -45 -14
-40 4 -45 2 -45 -17 0 -12 -6 -21 -15 -21 -8 0 -15 9 -15 20 0 11 7 20 15 20
8 0 15 7 15 15 0 11 12 15 45 15 36 0 45 -3 45 -18z m-1120 -36 c0 -32 -2 -34
-42 -40 -42 -7 -57 2 -58 32 0 9 5 10 19 2 16 -8 25 -5 48 15 15 13 29 25 31
25 1 0 2 -15 2 -34z m-410 -21 c0 -33 4 -45 15 -45 8 0 15 -9 15 -20 0 -11 -7
-20 -15 -20 -8 0 -15 7 -15 15 0 8 -7 15 -15 15 -11 0 -15 12 -15 50 0 38 4
50 15 50 11 0 15 -12 15 -45z m120 27 c0 -15 -8 -19 -45 -19 -37 0 -45 4 -45
19 0 15 8 18 45 18 37 0 45 -3 45 -18z m592 -3 c36 -26 24 -39 -38 -39 -52 0
-59 8 -32 37 26 28 32 28 70 2z m-142 -25 c0 -10 6 -14 15 -10 8 3 15 1 15 -4
0 -11 -6 -12 -37 -4 -26 7 -32 34 -8 34 8 0 15 -7 15 -16z m540 -4 c0 -11 -7
-20 -15 -20 -8 0 -15 9 -15 20 0 11 7 20 15 20 8 0 15 -9 15 -20z m240 0 c0
-16 -7 -20 -30 -20 -23 0 -30 4 -30 20 0 16 7 20 30 20 23 0 30 -4 30 -20z
m270 0 c0 -13 5 -18 15 -14 12 5 15 -4 15 -45 0 -39 -4 -51 -15 -51 -11 0 -15
-12 -15 -45 0 -33 -4 -45 -15 -45 -11 0 -15 12 -15 45 0 33 4 45 15 45 8 0 15
7 15 15 0 10 -10 15 -30 15 -20 0 -30 -5 -30 -15 0 -8 -7 -15 -15 -15 -8 0
-15 9 -15 20 0 11 7 20 15 20 11 0 15 12 15 45 0 43 1 45 30 45 23 0 30 -4 30
-20z m-1200 -60 c0 -16 -7 -20 -30 -20 -23 0 -30 4 -30 20 0 16 7 20 30 20 23
0 30 -4 30 -20z m420 0 c0 -19 -7 -20 -165 -20 -140 0 -165 -2 -165 -15 0 -10
-10 -15 -30 -15 -20 0 -30 -5 -30 -15 0 -10 -10 -15 -30 -15 -20 0 -30 -5 -30
-15 0 -8 -7 -15 -15 -15 -10 0 -15 -10 -15 -30 0 -27 3 -30 30 -30 20 0 30 -5
30 -15 0 -10 10 -15 30 -15 20 0 30 -5 30 -15 0 -13 28 -15 195 -15 167 0 195
2 195 15 0 10 10 15 30 15 20 0 30 5 30 15 0 10 10 15 30 15 27 0 30 3 30 30
0 20 -5 30 -15 30 -8 0 -15 7 -15 15 0 10 -10 15 -30 15 -20 0 -30 5 -30 15 0
10 -10 15 -30 15 -32 0 -42 23 -14 34 29 11 44 6 44 -15 0 -18 5 -21 30 -17
24 4 30 1 30 -14 0 -10 7 -18 15 -18 8 0 15 -7 15 -15 0 -8 7 -15 15 -15 10 0
15 -10 15 -30 0 -20 -5 -30 -15 -30 -8 0 -15 -7 -15 -15 0 -10 -10 -15 -30
-15 -22 0 -30 -5 -30 -18 0 -15 -6 -18 -30 -14 -25 4 -30 1 -30 -17 0 -22 -1
-22 -195 -19 -184 2 -195 3 -195 21 0 16 -6 18 -30 15 -24 -4 -30 -1 -30 14 0
13 -8 18 -30 18 -20 0 -30 5 -30 15 0 8 -7 15 -15 15 -10 0 -15 10 -15 30 0
20 5 30 15 30 8 0 15 7 15 15 0 8 7 15 15 15 8 0 15 7 15 15 0 10 10 15 30 15
24 0 30 4 30 21 0 18 4 20 30 14 26 -6 30 -4 30 14 0 20 5 21 165 21 158 0
165 -1 165 -20z m-496 -16 c28 -11 18 -34 -14 -34 -23 0 -30 4 -30 20 0 20 15
25 44 14z m376 -49 c0 -10 10 -15 30 -15 20 0 30 -5 30 -15 0 -8 7 -15 15 -15
8 0 15 -7 15 -15 0 -8 -7 -15 -15 -15 -8 0 -15 -7 -15 -15 0 -10 -10 -15 -30
-15 -20 0 -30 -5 -30 -15 0 -11 -12 -15 -45 -15 -33 0 -45 4 -45 15 0 10 -10
15 -30 15 -20 0 -30 5 -30 15 0 8 -7 15 -15 15 -8 0 -15 7 -15 15 0 8 7 15 15
15 8 0 15 7 15 15 0 10 10 15 30 15 20 0 30 5 30 15 0 11 12 15 45 15 33 0 45
-4 45 -15z m136 -27 c3 2 22 -5 44 -14 37 -17 39 -19 23 -36 -9 -10 -24 -18
-33 -18 -10 0 -23 -7 -30 -15 -12 -15 -55 -22 -48 -7 2 4 10 19 17 34 11 22
11 31 -3 59 l-16 32 21 -19 c12 -10 23 -18 25 -16z m-796 8 c0 -8 8 -17 18
-19 9 -3 2 -5 -15 -6 -27 -1 -33 3 -33 19 0 11 7 20 15 20 8 0 15 -6 15 -14z
m460 -5 c-13 -25 -9 -69 7 -75 19 -8 16 -26 -4 -26 -23 1 -96 43 -101 58 -2 7
20 23 50 37 64 30 61 30 48 6z m980 -6 c0 -11 -12 -15 -45 -15 -33 0 -45 4
-45 15 0 11 12 15 45 15 33 0 45 -4 45 -15z m60 -30 c0 -33 -4 -45 -15 -45 -8
0 -15 -9 -15 -20 0 -11 -7 -20 -15 -20 -8 0 -15 9 -15 20 0 11 7 20 15 20 11
0 15 12 15 45 0 33 4 45 15 45 11 0 15 -12 15 -45z m-480 -95 c0 -20 -5 -30
-15 -30 -8 0 -15 -4 -15 -10 0 -5 -7 -7 -15 -4 -12 5 -15 -3 -15 -35 0 -30 -4
-41 -15 -41 -12 0 -15 13 -15 55 0 42 3 55 15 55 8 0 15 6 15 14 0 13 16 22
48 25 7 1 12 -11 12 -29z m-750 5 c0 -10 10 -15 30 -15 20 0 30 -5 30 -15 0
-10 10 -15 30 -15 17 0 30 -4 30 -10 0 -5 -13 -10 -30 -10 -25 0 -30 -4 -30
-25 0 -21 -5 -25 -30 -25 -16 0 -30 5 -30 10 0 6 -7 10 -15 10 -12 0 -15 13
-15 55 0 42 3 55 15 55 8 0 15 -7 15 -15z m-390 -50 c0 -24 -5 -35 -15 -35
-10 0 -15 11 -15 35 0 24 5 35 15 35 10 0 15 -11 15 -35z m-60 -46 c0 -41 3
-50 15 -45 10 4 15 -1 15 -14 0 -11 7 -20 15 -20 8 0 15 -7 15 -15 0 -8 7 -15
15 -15 8 0 15 -7 15 -15 0 -8 7 -15 15 -15 8 0 15 -7 15 -15 0 -10 10 -15 30
-15 20 0 30 -5 30 -15 0 -10 10 -15 30 -15 20 0 30 -5 30 -15 0 -11 12 -15 45
-15 43 0 45 1 45 30 0 20 5 30 15 30 8 0 15 7 15 15 0 8 7 15 15 15 12 0 15
-13 15 -60 0 -47 -3 -60 -15 -60 -8 0 -15 -8 -15 -17 0 -16 -10 -18 -75 -18
-65 0 -75 2 -75 18 0 12 -8 17 -30 17 -20 0 -30 5 -30 15 0 10 -10 15 -30 15
-20 0 -30 5 -30 15 0 8 -7 15 -15 15 -8 0 -15 7 -15 15 0 8 -7 15 -15 15 -8 0
-15 7 -15 15 0 8 -7 15 -15 15 -8 0 -15 7 -15 15 0 8 -7 15 -15 15 -8 0 -15 7
-15 15 0 8 -7 15 -15 15 -11 0 -15 12 -15 51 0 41 3 50 15 45 10 -4 15 1 15
14 0 11 7 20 15 20 11 0 15 -12 15 -51z m180 30 c0 -15 -5 -19 -15 -15 -10 4
-15 -1 -15 -14 0 -16 -7 -20 -30 -20 -23 0 -30 4 -30 20 0 11 7 20 15 20 8 0
15 7 15 15 0 10 10 15 30 15 24 0 30 -4 30 -21z m900 -89 c0 -91 -3 -110 -15
-110 -12 0 -15 -15 -15 -75 0 -60 3 -75 15 -75 8 0 15 -9 15 -20 0 -13 5 -18
15 -14 12 5 15 -2 15 -30 0 -25 -4 -36 -15 -36 -8 0 -15 7 -15 15 0 8 -7 15
-15 15 -8 0 -15 9 -15 20 0 13 -5 18 -15 14 -12 -5 -15 5 -15 60 0 52 -3 66
-15 66 -8 0 -15 -7 -15 -15 0 -8 -7 -15 -15 -15 -8 0 -15 -9 -15 -20 0 -13 -5
-18 -15 -14 -12 5 -15 -2 -15 -30 0 -25 -4 -36 -15 -36 -11 0 -15 12 -15 50 0
38 4 50 15 50 8 0 15 7 15 15 0 8 7 15 15 15 8 0 15 7 15 15 0 8 7 15 15 15 8
0 15 7 15 15 0 8 7 15 15 15 8 0 15 7 15 15 0 8 7 15 15 15 12 0 15 14 15 65
0 53 -3 63 -15 59 -12 -5 -15 2 -15 30 0 33 2 36 30 36 l30 0 0 -110z m-780
60 c0 -11 -7 -20 -15 -20 -12 0 -15 -13 -15 -60 0 -47 -3 -60 -15 -60 -8 0
-15 -7 -15 -15 0 -8 -7 -15 -15 -15 -8 0 -15 7 -15 15 0 8 7 15 15 15 12 0 15
14 15 65 0 51 3 65 15 65 8 0 15 7 15 15 0 8 7 15 15 15 8 0 15 -9 15 -20z
m60 -5 c0 -16 6 -25 15 -25 10 0 15 -10 15 -30 0 -20 5 -30 15 -30 8 0 15 -4
15 -10 0 -5 -7 -10 -15 -10 -8 0 -15 5 -15 10 0 6 -7 10 -15 10 -10 0 -15 10
-15 30 0 20 -5 30 -15 30 -9 0 -15 9 -15 25 0 16 6 25 15 25 9 0 15 -9 15 -25z
m360 -40 c0 -51 -3 -65 -15 -65 -10 0 -15 10 -15 33 l0 32 -75 -3 c-57 -3 -75
-7 -75 -18 0 -9 -11 -14 -30 -14 -23 0 -30 4 -30 20 0 16 7 20 30 20 21 0 30
5 30 16 0 14 10 16 60 12 53 -4 60 -2 60 14 0 13 8 18 30 18 l30 0 0 -65z
m540 45 c0 -11 -7 -20 -15 -20 -8 0 -15 -7 -15 -15 0 -8 -7 -15 -15 -15 -8 0
-15 -7 -15 -15 0 -8 -7 -15 -15 -15 -11 0 -15 11 -15 36 0 28 3 35 15 30 10
-4 15 1 15 14 0 16 7 20 30 20 23 0 30 -4 30 -20z m240 -45 l0 -65 -45 0 -45
0 0 50 0 50 30 -6 c26 -6 30 -4 30 15 0 12 6 21 15 21 12 0 15 -14 15 -65z
m60 10 c0 -42 3 -55 15 -55 8 0 15 -4 15 -10 0 -5 -7 -10 -15 -10 -8 0 -15 5
-15 10 0 6 -7 10 -15 10 -12 0 -15 13 -15 55 0 42 3 55 15 55 12 0 15 -13 15
-55z m-702 33 c-5 -14 -61 -23 -85 -14 -27 11 -2 26 43 26 32 0 44 -4 42 -12z
m132 -24 c0 -19 4 -25 15 -20 11 4 15 -1 15 -19 0 -23 -4 -25 -45 -25 -33 0
-45 4 -45 15 0 10 -10 15 -30 15 -20 0 -30 5 -30 15 0 11 12 15 45 15 33 0 45
4 45 15 0 8 7 15 15 15 9 0 15 -10 15 -26z m-780 -34 l0 -50 -45 0 c-33 0 -45
4 -45 15 0 8 -7 15 -15 15 -8 0 -15 8 -15 19 0 16 6 18 45 13 41 -4 45 -3 45
17 0 12 6 21 15 21 11 0 15 -12 15 -50z m1170 15 c0 -24 -5 -35 -15 -35 -11 0
-15 -12 -15 -45 0 -43 1 -45 30 -45 20 0 30 5 30 15 0 12 17 15 90 15 73 0 90
-3 90 -15 0 -12 -17 -15 -90 -15 -73 0 -90 -3 -90 -15 0 -10 -10 -15 -30 -15
-20 0 -30 5 -30 15 0 8 -7 15 -15 15 -12 0 -15 14 -15 65 0 53 3 63 15 59 10
-4 15 0 15 15 0 12 6 21 15 21 10 0 15 -11 15 -35z m-1050 -55 c0 -29 -4 -40
-15 -40 -11 0 -15 11 -15 40 0 29 4 40 15 40 11 0 15 -11 15 -40z m510 25 c0
-10 10 -15 30 -15 20 0 30 -5 30 -15 0 -10 -10 -15 -30 -15 -20 0 -30 5 -30
15 0 11 -12 15 -45 15 -33 0 -45 4 -45 15 0 11 12 15 45 15 33 0 45 -4 45 -15z
m450 -45 c0 -47 -3 -60 -15 -60 -12 0 -15 13 -15 60 0 47 3 60 15 60 12 0 15
-13 15 -60z m-660 40 c0 -5 -13 -10 -30 -10 -16 0 -30 5 -30 10 0 6 14 10 30
10 17 0 30 -4 30 -10z m510 -13 c0 -13 -6 -31 -13 -40 -11 -16 -12 -14 -12 15
0 27 9 47 23 48 1 0 2 -10 2 -23z m-668 -29 c-2 -10 -13 -18 -26 -18 -12 0
-16 3 -10 8 6 4 10 17 9 28 -1 18 1 20 15 11 10 -6 15 -18 12 -29z m148 -7 c0
-3 -9 -17 -20 -31 l-20 -25 -32 34 c-28 32 -29 35 -12 41 18 7 84 -8 84 -19z
m70 -87 c0 -86 3 -104 15 -104 11 0 15 -12 15 -50 0 -38 -4 -50 -15 -50 -10 0
-15 11 -15 35 0 26 -3 33 -15 29 -12 -5 -15 5 -15 60 0 52 -3 66 -15 66 -8 0
-15 -7 -15 -15 0 -8 -7 -15 -15 -15 -8 0 -15 -9 -15 -20 0 -13 -5 -18 -15 -14
-10 4 -15 0 -15 -15 0 -12 -6 -21 -15 -21 -10 0 -15 11 -15 35 0 24 5 35 15
35 8 0 15 7 15 15 0 8 7 15 15 15 8 0 15 7 15 15 0 8 7 15 15 15 8 0 15 7 15
15 0 8 7 15 15 15 10 0 15 11 15 35 0 26 3 33 15 29 12 -5 15 -27 15 -110z
m510 76 c0 -29 -4 -40 -15 -40 -10 0 -15 -10 -15 -30 0 -20 -5 -30 -15 -30
-11 0 -15 -12 -15 -45 0 -33 -4 -45 -15 -45 -11 0 -15 12 -15 45 0 33 4 45 15
45 10 0 15 10 15 30 0 20 5 30 15 30 11 0 15 11 15 40 0 29 4 40 15 40 11 0
15 -11 15 -40z m-374 -1 c7 -13 52 -11 90 3 17 6 40 8 50 4 18 -7 17 -9 -6
-21 -14 -8 -21 -14 -16 -15 14 0 -16 -31 -39 -40 -14 -6 -27 -2 -43 14 -18 16
-36 21 -78 20 -49 0 -54 2 -54 22 0 13 7 24 18 26 25 5 71 -3 78 -13z m-316
-24 c0 -8 7 -15 15 -15 9 0 15 -9 15 -25 0 -16 -6 -25 -15 -25 -8 0 -15 5 -15
10 0 6 -7 10 -15 10 -10 0 -15 10 -15 30 0 20 5 30 15 30 8 0 15 -7 15 -15z
m1170 -20 c0 -8 7 -15 15 -15 11 0 15 -12 15 -50 0 -40 -3 -48 -15 -44 -11 4
-15 0 -15 -16 0 -16 -4 -20 -15 -16 -10 4 -15 -1 -15 -16 0 -19 -4 -20 -45
-15 -41 6 -45 5 -45 -14 0 -19 -5 -21 -45 -17 -38 3 -45 0 -45 -14 0 -16 -11
-18 -90 -18 -73 0 -90 3 -90 15 0 10 -10 15 -30 15 -23 0 -30 4 -30 20 0 13
-5 18 -15 14 -12 -5 -15 2 -15 30 0 25 4 36 15 36 8 0 15 7 15 15 0 8 7 15 15
15 10 0 15 -11 15 -35 0 -26 3 -33 15 -29 10 4 15 0 15 -14 0 -18 7 -20 75
-20 69 0 75 2 75 20 0 18 5 20 45 16 39 -5 45 -3 45 13 0 16 8 19 45 19 33 0
45 4 45 15 0 8 7 15 15 15 8 0 15 7 15 15 0 8 -7 15 -15 15 -10 0 -15 10 -15
30 0 27 3 30 30 30 20 0 30 -5 30 -15z m-1230 -25 c0 -20 5 -30 15 -30 12 0
15 -17 15 -90 0 -73 -3 -90 -15 -90 -12 0 -15 17 -15 90 0 73 -3 90 -15 90
-10 0 -15 10 -15 30 0 20 5 30 15 30 10 0 15 -10 15 -30z m-420 -25 c0 -24 -5
-35 -15 -35 -12 0 -15 -15 -15 -75 0 -60 -3 -75 -15 -75 -12 0 -15 15 -15 75
0 60 3 75 15 75 10 0 15 11 15 35 0 24 5 35 15 35 10 0 15 -11 15 -35z m1230
15 c0 -9 -50 -23 -57 -16 -3 3 -3 12 0 19 6 15 57 12 57 -3z m60 -30 c0 -38 4
-50 15 -50 8 0 15 -7 15 -15 0 -8 -7 -15 -15 -15 -8 0 -15 7 -15 15 0 8 -7 15
-15 15 -11 0 -15 12 -15 50 0 38 4 50 15 50 11 0 15 -12 15 -50z m-480 25 c0
-8 7 -15 15 -15 8 0 15 -7 15 -15 0 -10 -10 -15 -30 -15 -20 0 -30 5 -30 15 0
8 -7 15 -15 15 -8 0 -15 -7 -15 -15 0 -10 -10 -15 -30 -15 -20 0 -30 5 -30 15
0 8 7 15 15 15 8 0 15 7 15 15 0 11 12 15 45 15 33 0 45 -4 45 -15z m581 -15
c-24 -21 -67 -28 -56 -10 3 6 15 10 25 10 10 0 22 5 25 10 3 6 12 10 18 10 7
-1 1 -10 -12 -20z m169 -5 c0 -11 -12 -15 -45 -15 -32 0 -45 -4 -45 -14 0 -8
-13 -16 -30 -18 -24 -4 -30 -1 -30 14 0 10 7 18 15 18 8 0 15 7 15 15 0 12 13
15 60 15 47 0 60 -3 60 -15z m-1470 -30 c0 -8 7 -15 15 -15 8 0 15 -9 15 -20
0 -11 -7 -20 -15 -20 -8 0 -15 7 -15 15 0 8 -7 15 -15 15 -8 0 -15 6 -15 14 0
8 -8 17 -17 19 -10 3 -3 5 15 6 22 1 32 -4 32 -14z m690 -25 c0 -5 11 -10 25
-10 17 0 25 -6 25 -17 0 -13 -3 -14 -12 -5 -7 7 -30 12 -52 12 -38 1 -40 2
-22 15 23 17 36 19 36 5z m600 -10 c0 -11 -7 -20 -15 -20 -8 0 -15 9 -15 20 0
11 7 20 15 20 8 0 15 -9 15 -20z m-1350 -5 c0 -8 7 -15 15 -15 8 0 15 -7 15
-15 0 -10 10 -15 30 -15 27 0 30 -3 30 -30 0 -30 0 -30 -60 -30 l-60 0 0 60
c0 47 3 60 15 60 8 0 15 -7 15 -15z m240 -25 c0 -11 -7 -20 -15 -20 -8 0 -15
-7 -15 -15 0 -8 -7 -15 -15 -15 -8 0 -15 -7 -15 -15 0 -8 -7 -15 -15 -15 -11
0 -15 11 -15 36 0 28 3 35 15 30 10 -4 15 1 15 14 0 16 7 20 30 20 23 0 30 -4
30 -20z m278 -20 c13 0 22 -6 22 -15 0 -10 10 -15 30 -15 20 0 30 -5 30 -15 0
-12 -13 -15 -60 -15 -47 0 -60 3 -60 15 0 8 -7 15 -15 15 -9 0 -15 9 -15 21 0
17 4 20 23 15 12 -3 32 -6 45 -6z m262 -15 c0 -8 7 -15 15 -15 8 0 15 -7 15
-15 0 -10 -10 -15 -30 -15 -20 0 -30 5 -30 15 0 8 -7 15 -15 15 -8 0 -15 -7
-15 -15 0 -8 -7 -15 -15 -15 -10 0 -15 10 -15 30 0 29 2 30 45 30 33 0 45 -4
45 -15z m180 -25 c0 -17 -7 -20 -45 -20 -55 0 -65 26 -12 33 17 2 38 5 45 5 6
1 12 -7 12 -18z m600 0 c0 -11 -7 -20 -15 -20 -8 0 -15 9 -15 20 0 11 7 20 15
20 8 0 15 -9 15 -20z"/>
<path d="M1860 1965 c0 -8 -7 -15 -15 -15 -8 0 -15 -7 -15 -15 0 -8 -7 -15
-15 -15 -8 0 -15 -8 -15 -18 0 -15 6 -18 30 -14 17 2 30 10 30 18 0 8 7 14 15
14 10 0 15 10 15 30 0 20 -5 30 -15 30 -8 0 -15 -7 -15 -15z"/>
<path d="M1680 1890 c0 -19 5 -30 14 -30 8 0 21 -3 30 -6 12 -4 16 0 16 15 0
12 6 21 15 21 8 0 15 7 15 15 0 11 -12 15 -45 15 -43 0 -45 -1 -45 -30z"/>
<path d="M1440 1635 c0 -8 -7 -15 -15 -15 -8 0 -15 -7 -15 -15 0 -8 -7 -15
-15 -15 -8 0 -15 -7 -15 -15 0 -8 -7 -15 -15 -15 -8 0 -15 -7 -15 -15 0 -8 7
-15 15 -15 8 0 15 -7 15 -15 0 -12 18 -15 105 -15 87 0 105 3 105 15 0 8 7 15
15 15 8 0 15 7 15 15 0 8 -7 15 -15 15 -8 0 -15 7 -15 15 0 8 -7 15 -15 15 -8
0 -15 7 -15 15 0 8 -7 15 -15 15 -8 0 -15 7 -15 15 0 11 -12 15 -45 15 -33 0
-45 -4 -45 -15z m93 -67 c4 -12 4 -24 2 -27 -3 -2 -5 1 -5 7 0 7 -7 12 -15 12
-8 0 -15 -7 -15 -15 0 -8 -7 -15 -15 -15 -8 0 -15 7 -15 15 0 21 -18 19 -23
-2 -3 -10 -5 -3 -6 15 -1 31 0 32 43 32 37 0 45 -4 49 -22z"/>
<path d="M1350 1395 c0 -8 7 -15 15 -15 8 0 15 -7 15 -15 0 -8 7 -15 15 -15 8
0 15 -7 15 -15 0 -8 7 -15 15 -15 8 0 15 -7 15 -15 0 -8 7 -15 15 -15 8 0 15
7 15 15 0 8 7 15 15 15 8 0 15 -7 15 -15 0 -8 7 -15 15 -15 8 0 15 7 15 15 0
8 7 15 15 15 8 0 15 7 15 15 0 8 7 15 15 15 8 0 15 7 15 15 0 8 7 15 15 15 8
0 15 7 15 15 0 10 -10 15 -30 15 -20 0 -30 -5 -30 -15 0 -8 -7 -15 -15 -15 -8
0 -15 7 -15 15 0 8 -7 15 -15 15 -8 0 -15 -7 -15 -15 0 -8 -7 -15 -15 -15 -8
0 -15 7 -15 15 0 8 -7 15 -15 15 -8 0 -15 -7 -15 -15 0 -8 -7 -15 -15 -15 -8
0 -15 7 -15 15 0 10 -10 15 -30 15 -20 0 -30 -5 -30 -15z"/>
<path d="M1470 665 c0 -8 -7 -15 -15 -15 -8 0 -15 -7 -15 -15 0 -8 7 -15 15
-15 8 0 15 -7 15 -15 0 -8 7 -15 15 -15 8 0 15 7 15 15 0 8 7 15 15 15 8 0 15
7 15 15 0 8 -7 15 -15 15 -8 0 -15 7 -15 15 0 8 -7 15 -15 15 -8 0 -15 -7 -15
-15z"/>
<path d="M482 2067 c3 -29 1 -33 -14 -29 -17 4 -18 -3 -13 -99 11 -231 25
-268 25 -66 0 120 2 137 16 137 14 0 15 7 10 42 -6 36 -5 39 8 29 8 -7 19 -10
25 -7 5 4 7 -24 4 -73 -5 -72 -4 -79 13 -83 15 -3 18 -11 16 -44 -3 -35 0 -42
18 -47 17 -4 20 -10 14 -31 -5 -20 -2 -26 10 -26 9 0 16 -6 16 -14 0 -8 12
-17 28 -21 15 -4 21 -10 15 -12 -19 -7 -15 -24 4 -21 10 2 18 -3 18 -10 0 -14
23 -32 43 -32 8 0 12 8 10 18 -2 9 -10 16 -16 14 -7 -1 -12 7 -12 19 0 15 -5
19 -15 15 -10 -4 -15 1 -15 14 0 11 -7 20 -15 20 -8 0 -15 7 -15 15 0 8 -7 15
-15 15 -10 0 -15 11 -15 35 0 26 -3 33 -15 29 -12 -5 -15 4 -15 45 0 39 -4 51
-15 51 -12 0 -15 15 -15 75 l0 75 -46 0 -46 0 4 -33z"/>
<path d="M2430 2025 c0 -60 -3 -75 -15 -75 -11 0 -15 -12 -15 -51 0 -41 -3
-50 -15 -45 -12 4 -15 -3 -15 -29 0 -24 -5 -35 -15 -35 -8 0 -15 -7 -15 -15 0
-8 -7 -15 -15 -15 -8 0 -15 -9 -15 -20 0 -13 -5 -18 -15 -14 -9 4 -15 0 -15
-10 0 -9 -7 -16 -15 -16 -8 0 -15 -8 -15 -19 0 -17 -6 -18 -60 -14 -57 5 -60
4 -60 -17 0 -20 -4 -22 -30 -16 -25 5 -30 2 -30 -14 0 -11 -7 -20 -15 -20 -11
0 -15 -11 -15 -40 0 -29 4 -40 15 -40 10 0 15 10 15 30 0 20 5 30 15 30 8 0
15 7 15 15 0 10 10 15 29 15 19 0 30 6 33 18 4 15 12 18 36 14 21 -3 40 3 60
17 16 11 32 17 36 14 4 -4 9 2 12 14 4 13 11 20 20 16 8 -3 14 -1 14 5 0 6 -6
12 -12 15 -7 2 -1 8 15 12 15 4 27 13 27 21 0 8 7 14 16 14 12 0 15 6 10 26
-6 21 -3 27 14 31 14 4 21 13 19 27 -3 48 1 66 17 66 15 0 16 10 11 80 -3 49
-1 78 4 74 6 -3 16 -1 23 5 11 9 13 4 9 -29 -4 -32 -2 -40 11 -40 14 0 16 -18
16 -136 0 -96 3 -133 11 -128 7 4 9 21 6 40 -3 19 -3 33 1 30 4 -2 8 47 9 110
2 95 0 114 -12 114 -10 0 -15 10 -15 30 0 29 -2 30 -45 30 l-45 0 0 -75z"/>
<path d="M334 1956 c8 -32 -2 -56 -20 -49 -12 5 -15 -4 -12 -47 4 -69 28 -82
28 -16 0 33 4 46 14 46 9 0 16 12 18 33 2 20 8 32 18 32 12 0 15 -14 12 -77
-2 -77 -2 -78 23 -78 14 0 25 5 25 10 0 6 -4 10 -10 10 -6 0 -10 33 -10 80 l0
80 -46 0 c-44 0 -46 -1 -40 -24z"/>
<path d="M2580 1900 c0 -47 -4 -80 -10 -80 -5 0 -10 -4 -10 -10 0 -5 12 -10
26 -10 25 0 25 0 22 78 -2 63 0 77 12 77 10 0 16 -12 18 -32 2 -21 9 -33 18
-33 10 0 14 -13 14 -46 0 -64 24 -53 28 13 3 44 0 51 -18 56 -19 5 -21 10 -15
36 l7 31 -46 0 -46 0 0 -80z"/>
<path d="M2640 1713 c0 -58 -3 -73 -15 -73 -11 0 -15 -12 -15 -50 0 -38 -4
-50 -15 -50 -10 0 -15 -10 -15 -30 0 -20 -5 -30 -15 -30 -8 0 -15 -6 -15 -13
0 -9 10 -13 28 -12 24 1 27 5 27 36 0 29 3 35 17 31 15 -4 18 3 18 41 0 30 5
47 15 50 11 5 14 22 10 82 -3 69 -2 75 16 75 15 0 19 -7 20 -37 0 -21 3 -32 6
-25 15 37 23 -15 23 -144 0 -121 -2 -144 -15 -144 -16 0 -18 -33 -5 -85 l8
-30 1 35 c2 42 14 65 30 55 9 -5 11 38 11 164 -2 177 -2 177 -41 173 -3 -1 -6
6 -6 14 0 8 3 14 7 14 4 0 7 6 7 14 0 10 -13 14 -44 13 l-43 0 0 -74z"/>
<path d="M426 1747 c-5 -21 -6 -41 -2 -44 12 -12 17 5 14 43 l-4 39 -8 -38z"/>
<path d="M2560 1741 c0 -23 5 -41 10 -41 12 0 10 69 -2 76 -4 3 -8 -13 -8 -35z"/>
<path d="M456 1684 c-11 -28 -7 -46 9 -40 10 4 15 -1 15 -14 0 -11 5 -20 10
-20 17 0 11 29 -10 47 -14 13 -17 20 -8 30 7 8 7 13 0 13 -5 0 -13 -7 -16 -16z"/>
<path d="M519 1655 c-5 -56 -3 -75 9 -75 6 0 12 -7 12 -16 0 -10 6 -14 15 -11
8 4 17 2 20 -3 10 -17 25 -11 25 10 0 13 -5 18 -15 14 -10 -4 -15 0 -15 11 0
12 -6 16 -18 13 -15 -4 -17 1 -14 34 3 23 0 38 -7 38 -6 0 -12 -7 -12 -15z"/>
<path d="M763 1663 c-29 -11 -10 -24 29 -21 35 2 43 -1 46 -16 3 -13 10 -17
29 -13 19 3 27 0 30 -14 3 -11 14 -19 24 -19 15 0 17 -5 13 -30 -5 -23 -3 -30
10 -30 12 0 16 10 16 40 0 29 -4 40 -15 40 -9 0 -15 9 -15 21 0 18 -4 20 -30
14 -26 -6 -30 -4 -30 14 0 18 -6 21 -47 20 -27 0 -54 -3 -60 -6z"/>
<path d="M2462 1632 c3 -33 1 -38 -14 -34 -12 3 -18 -1 -18 -13 0 -11 -5 -15
-15 -11 -10 3 -15 -1 -15 -13 0 -14 6 -17 30 -13 17 2 30 10 30 18 0 8 6 14
13 14 6 0 12 13 13 30 1 17 -3 30 -7 30 -5 0 -6 7 -3 15 4 8 1 15 -6 15 -8 0
-11 -13 -8 -38z"/>
<path d="M2518 1659 c-19 -11 -25 -49 -8 -49 6 0 10 9 10 20 0 11 5 19 11 18
6 -2 14 3 16 10 6 14 -6 15 -29 1z"/>
<path d="M726 1642 c-3 -6 -3 -17 0 -26 4 -12 0 -16 -16 -16 -12 0 -18 -4 -15
-10 3 -6 -4 -14 -17 -19 -16 -7 -18 -10 -6 -10 9 -1 20 4 23 9 3 6 17 8 31 6
21 -4 24 -1 24 22 0 32 -15 59 -24 44z"/>
<path d="M2254 1626 c-7 -28 11 -60 28 -50 15 10 39 -17 33 -37 -5 -16 -1 -19
24 -19 22 0 31 -5 31 -16 0 -14 3 -14 15 -4 13 10 15 9 16 -11 0 -22 1 -23 9
-4 11 25 12 41 3 32 -3 -4 -17 0 -30 8 -13 9 -28 13 -33 10 -6 -3 -10 3 -10
13 0 12 -9 22 -21 25 -12 3 -18 10 -14 16 3 6 -1 11 -9 11 -9 0 -17 5 -17 10
-1 6 -2 14 -3 19 -3 23 -16 21 -22 -3z"/>
<path d="M2160 1533 c0 -11 7 -13 30 -8 32 7 36 -1 42 -75 2 -27 -1 -35 -16
-38 -17 -4 -18 0 -13 34 4 27 3 34 -3 23 -12 -21 -8 -100 5 -97 6 2 9 9 7 16
-2 7 7 12 19 12 21 0 22 3 16 59 -6 54 -5 60 13 64 17 4 17 5 -2 4 -13 0 -30
3 -38 6 -40 14 -60 15 -60 0z"/>
<path d="M973 1513 c-19 -7 -16 -53 2 -53 8 0 23 -8 33 -18 10 -10 24 -16 30
-14 17 5 15 22 -3 22 -8 0 -15 7 -15 15 0 8 -6 15 -14 15 -8 0 -16 8 -18 18
-2 11 -9 17 -15 15z"/>
<path d="M840 1475 c0 -22 5 -35 13 -35 8 0 14 14 15 35 2 26 -1 35 -13 35
-11 0 -15 -10 -15 -35z"/>
<path d="M2010 1495 c0 -8 -7 -15 -15 -15 -8 0 -15 -7 -15 -15 0 -8 -7 -15
-15 -15 -18 0 -20 -16 -3 -26 6 -4 14 -2 16 5 3 9 7 9 19 -1 14 -11 15 -10 9
10 -6 18 -4 22 13 22 16 0 21 6 21 25 0 16 -6 25 -15 25 -8 0 -15 -7 -15 -15z"/>
<path d="M2130 1480 c0 -20 -5 -30 -15 -30 -12 0 -15 -15 -15 -76 0 -50 4 -73
10 -69 6 4 17 1 25 -5 18 -15 20 -3 2 14 -7 7 -12 29 -12 49 1 20 -2 34 -7 31
-4 -3 -8 3 -8 14 0 10 11 24 25 30 15 7 25 20 25 32 0 12 7 20 17 20 24 0 7
13 -22 17 -22 3 -25 0 -25 -27z"/>
<path d="M2445 1455 c16 -13 32 -21 35 -18 3 3 -1 8 -7 10 -7 3 -13 11 -13 19
0 8 -10 14 -22 14 -22 -1 -22 -2 7 -25z"/>
<path d="M865 1436 c-22 -13 -31 -36 -15 -36 6 0 13 7 16 15 9 22 24 18 24 -6
0 -11 -3 -18 -8 -16 -4 3 -8 -14 -8 -38 -1 -29 3 -45 12 -49 11 -4 14 10 14
69 0 78 -2 81 -35 61z"/>
<path d="M2340 1435 c0 -8 -6 -15 -13 -15 -7 0 -13 -9 -14 -20 -1 -13 2 -18 9
-14 6 4 8 3 4 -4 -3 -6 -1 -14 5 -18 8 -5 10 1 7 18 -4 22 -2 25 16 20 12 -3
18 -1 14 3 -4 4 -3 16 3 26 8 16 6 19 -11 19 -11 0 -20 -7 -20 -15z"/>
<path d="M2520 1424 c0 -14 -6 -24 -15 -24 -9 0 -12 -6 -8 -16 6 -16 7 -16 18
0 7 9 17 16 24 16 6 0 10 6 9 13 -2 7 5 11 16 9 11 -2 16 2 14 9 -2 6 -16 13
-31 15 -23 2 -27 -1 -27 -22z"/>
<path d="M1035 1410 c-3 -5 3 -10 13 -10 19 0 36 -30 33 -56 -1 -7 12 -11 29
-10 33 1 43 26 10 26 -13 0 -18 5 -14 15 4 9 0 15 -10 15 -9 0 -16 7 -16 15 0
17 -35 21 -45 5z"/>
<path d="M1890 1375 c0 -8 -7 -15 -15 -15 -8 0 -15 -6 -15 -14 0 -9 7 -13 18
-11 24 4 38 -5 46 -32 6 -18 4 -21 -15 -16 -15 4 -20 3 -15 -5 4 -7 18 -12 32
-12 19 0 24 5 24 24 0 13 -7 26 -15 30 -8 3 -15 13 -15 21 0 9 -5 13 -11 9 -8
-4 -8 0 0 15 10 17 9 21 -4 21 -8 0 -15 -7 -15 -15z"/>
<path d="M2280 1379 c0 -7 -8 -18 -17 -25 -16 -12 -15 -13 9 -12 27 2 43 21
32 39 -8 13 -24 11 -24 -2z"/>
<path d="M2037 1290 c30 -34 33 -36 33 -15 0 8 -7 15 -15 15 -8 0 -15 7 -15
15 0 8 -7 15 -15 15 -11 0 -8 -8 12 -30z"/>
<path d="M243 1270 c6 -26 4 -33 -13 -37 -22 -6 -26 -23 -9 -40 9 -9 5 -14
-15 -19 -21 -5 -26 -12 -26 -35 0 -20 -5 -29 -16 -29 -12 0 -14 -7 -9 -30 6
-26 4 -30 -15 -30 -19 0 -21 -4 -16 -26 5 -20 3 -27 -14 -31 -22 -6 -25 -20
-10 -43 6 -10 10 -11 10 -2 0 6 9 12 20 12 16 0 20 7 20 36 0 28 3 35 15 30
12 -4 15 3 15 29 0 26 4 35 16 35 12 0 15 7 12 30 -4 24 -1 30 14 30 13 0 18
8 18 30 0 20 5 30 16 30 20 0 16 81 -5 88 -11 4 -13 -2 -8 -28z"/>
<path d="M335 1290 c-3 -5 -2 -10 4 -10 5 0 12 -9 16 -19 4 -12 12 -18 20 -14
8 3 12 9 9 14 -3 5 -10 7 -15 4 -5 -4 -9 3 -9 14 0 22 -14 28 -25 11z"/>
<path d="M2737 1293 c-2 -5 -5 -25 -6 -45 -1 -28 2 -38 14 -38 10 0 15 -10 15
-30 0 -22 5 -30 18 -30 15 0 18 -6 14 -30 -3 -23 0 -30 12 -30 12 0 16 -9 16
-35 0 -26 3 -33 15 -29 12 5 15 -2 15 -30 0 -30 4 -36 17 -34 15 2 17 -3 15
-29 -3 -25 0 -33 12 -33 11 0 16 -9 16 -30 0 -20 5 -30 15 -30 10 0 15 -10 15
-30 0 -16 5 -30 11 -30 7 0 8 11 4 31 -5 22 -4 29 4 25 6 -4 11 -1 11 7 0 8
-9 17 -19 20 -16 4 -19 11 -15 36 5 27 2 32 -13 29 -15 -2 -18 3 -15 30 2 27
-1 32 -19 32 -18 0 -20 4 -14 31 6 26 4 30 -12 27 -15 -2 -18 3 -16 28 2 24
-2 33 -16 37 -14 3 -17 11 -14 29 4 19 0 26 -17 31 -16 4 -20 10 -15 30 5 19
2 25 -15 30 -17 4 -20 11 -15 36 5 27 -7 43 -18 24z"/>
<path d="M1868 1253 c13 -5 17 -24 5 -22 -26 4 -43 -3 -42 -18 0 -11 3 -13 6
-6 3 8 14 11 29 7 18 -5 24 -2 24 10 0 9 7 16 15 16 8 0 15 4 15 8 0 5 -15 9
-32 9 -18 1 -27 -1 -20 -4z"/>
<path d="M780 1190 c0 -5 14 -10 30 -10 18 0 30 -5 30 -13 0 -24 54 -18 69 6
11 18 11 20 0 10 -18 -18 -39 -16 -39 2 0 11 -12 15 -45 15 -25 0 -45 -4 -45
-10z"/>
<path d="M2130 1184 c0 -12 -7 -14 -30 -9 -26 6 -30 4 -30 -14 0 -17 4 -19 23
-12 12 5 32 7 45 5 14 -3 22 1 22 11 0 10 10 15 30 15 17 0 30 5 30 10 0 6
-20 10 -45 10 -34 0 -45 -4 -45 -16z"/>
<path d="M2280 1172 c0 -17 6 -22 28 -22 15 0 34 5 42 10 11 7 8 10 -15 10
-17 0 -36 5 -43 12 -9 9 -12 7 -12 -10z"/>
<path d="M297 1158 c2 -5 -1 -8 -7 -8 -6 0 -9 -4 -6 -9 3 -4 -6 -6 -21 -3 -18
3 -24 1 -19 -7 10 -16 56 -14 56 3 0 17 47 27 54 12 2 -6 5 -3 5 6 1 13 -7 16
-33 15 -19 -1 -32 -5 -29 -9z"/>
<path d="M2340 1132 c0 -21 46 -26 54 -6 3 8 0 14 -7 15 -7 0 -20 2 -29 4 -11
2 -18 -3 -18 -13z"/>
<path d="M2700 1136 c0 -9 8 -16 20 -16 16 0 19 -5 14 -30 -5 -22 -2 -31 10
-36 10 -4 16 -18 16 -35 0 -21 5 -29 18 -29 15 0 18 -6 14 -30 -3 -23 0 -30
12 -30 11 0 16 -9 16 -30 0 -21 5 -30 16 -30 12 0 15 6 10 23 -3 12 -6 32 -6
45 0 15 -6 22 -20 22 -17 0 -19 3 -11 18 10 19 0 46 -15 40 -5 -1 -10 12 -12
30 -2 19 -9 32 -17 32 -10 0 -14 9 -11 30 2 20 -1 30 -9 30 -8 0 -20 3 -29 6
-11 4 -16 1 -16 -10z"/>
<path d="M385 1101 c14 -13 93 -17 105 -5 6 6 -11 11 -52 12 -40 2 -59 -1 -53
-7z"/>
<path d="M250 1090 c0 -5 -7 -10 -15 -10 -8 0 -16 -8 -16 -17 -3 -43 -5 -48
-18 -45 -10 2 -12 -5 -8 -24 3 -20 0 -28 -14 -31 -13 -4 -19 -14 -19 -35 0
-22 -6 -31 -21 -35 -16 -4 -17 -8 -7 -14 29 -19 48 -10 48 21 0 20 5 30 15 30
10 0 15 10 15 30 0 20 5 30 15 30 11 0 15 11 15 36 0 28 3 35 15 30 11 -4 15
1 15 19 0 14 -4 25 -10 25 -5 0 -10 -4 -10 -10z"/>
<path d="M306 1035 c4 -11 0 -15 -16 -15 -18 0 -21 -4 -17 -21 3 -13 -1 -26
-13 -36 -14 -12 -17 -26 -14 -55 4 -34 2 -40 -16 -45 -21 -6 -26 -18 -11 -28
5 -3 12 -1 16 5 11 18 25 0 19 -26 -4 -14 -2 -24 5 -24 7 0 11 29 11 85 0 69
3 85 15 85 8 0 15 7 15 15 0 8 7 15 15 15 9 0 15 9 15 21 0 17 5 20 21 16 12
-3 18 -2 13 2 -5 5 -21 11 -36 15 -22 5 -26 3 -22 -9z"/>
<path d="M397 1043 c-11 -10 -8 -25 3 -18 6 3 10 -1 10 -10 0 -11 -6 -14 -25
-9 -16 4 -25 2 -25 -5 0 -16 82 -10 88 7 2 6 -3 12 -12 12 -9 0 -16 7 -16 15
0 16 -12 20 -23 8z"/>
<path d="M450 906 c0 -78 14 -110 23 -53 5 30 -10 127 -19 127 -2 0 -4 -33 -4
-74z"/>
<path d="M496 943 c-3 -10 -9 -24 -12 -30 -3 -8 1 -13 10 -13 11 0 16 9 16 30
0 34 -5 38 -14 13z"/>
<path d="M61 911 c3 -35 -2 -51 -16 -51 -8 0 -15 -5 -15 -11 0 -5 5 -7 11 -3
9 5 10 -3 5 -30 -4 -23 -3 -36 4 -36 5 0 10 14 10 30 0 20 5 30 15 30 10 0 15
10 15 30 0 20 5 30 15 30 8 0 15 6 15 14 0 10 -10 14 -30 14 -22 -1 -30 -6
-29 -17z"/>
<path d="M118 835 c-18 -15 -26 -30 -22 -40 5 -11 0 -18 -15 -22 -16 -4 -19
-11 -15 -28 3 -13 1 -32 -5 -43 -9 -17 -8 -19 9 -15 14 4 20 14 20 34 0 19 5
29 15 29 10 0 15 10 15 30 0 20 5 30 15 30 9 0 15 9 15 25 0 30 1 30 -32 0z"/>
<path d="M488 847 c6 -7 13 -40 15 -72 l3 -60 2 73 c2 60 -1 72 -14 72 -12 0
-14 -3 -6 -13z"/>
<path d="M2850 830 c0 -11 7 -20 15 -20 10 0 15 -10 15 -30 0 -20 5 -30 15
-30 10 0 15 -10 15 -29 0 -20 6 -30 20 -34 17 -4 18 -2 10 14 -6 10 -8 29 -4
42 4 19 1 25 -16 30 -16 4 -20 11 -16 25 5 14 -1 24 -18 36 -32 21 -36 20 -36
-4z"/>
<path d="M279 758 c-7 -70 -6 -73 41 -75 26 -1 38 2 30 7 -10 6 -8 9 6 13 10
2 2 5 -18 6 -35 1 -38 3 -38 31 0 28 -19 44 -21 18z"/>
<path d="M2700 740 c0 -28 -3 -30 -36 -30 -29 0 -33 -2 -22 -13 7 -7 28 -12
47 -11 36 1 38 7 32 74 -2 25 -21 7 -21 -20z"/>
<path d="M158 710 c4 -26 1 -30 -18 -30 -16 0 -20 -5 -16 -17 15 -58 17 -68 8
-54 -20 28 -41 5 -37 -39 4 -33 1 -42 -15 -48 -14 -5 -17 -11 -10 -22 8 -12
10 -13 10 -1 0 8 3 12 6 8 12 -12 34 22 34 52 0 22 5 31 16 31 12 0 15 8 12
33 -2 25 1 32 15 31 13 -1 17 6 17 33 0 33 2 35 30 31 40 -6 39 8 -1 16 -52
10 -56 8 -51 -24z"/>
<path d="M2760 724 c0 -6 13 -9 30 -6 28 4 30 2 30 -31 0 -27 4 -34 18 -33 14
1 16 -6 14 -33 -3 -29 -1 -33 15 -29 16 4 18 -1 15 -49 -3 -37 -8 -53 -18 -53
-8 0 -14 -7 -14 -15 0 -12 3 -12 20 2 11 10 20 24 20 32 0 11 4 11 19 -3 16
-14 19 -15 24 -2 3 8 -2 16 -14 19 -17 5 -19 11 -13 46 5 32 3 42 -10 47 -10
4 -16 18 -16 36 0 22 -4 29 -14 25 -16 -6 -29 20 -24 44 2 10 -9 14 -39 14
-24 0 -43 -5 -43 -11z"/>
<path d="M576 563 c9 -52 14 -54 14 -5 0 23 -5 42 -10 42 -7 0 -8 -14 -4 -37z"/>
<path d="M2550 525 c0 -24 -5 -35 -15 -35 -8 0 -15 -7 -15 -15 0 -9 -9 -15
-22 -15 -31 0 -14 -13 23 -17 19 -2 28 1 24 8 -4 6 2 13 14 16 23 6 28 19 9
26 -10 4 -10 7 0 18 16 18 15 36 -3 43 -12 4 -15 -3 -15 -29z"/>
<path d="M333 538 c1 -7 -6 -12 -16 -11 -16 1 -18 -6 -16 -45 3 -37 0 -48 -13
-50 -10 -2 -15 -9 -11 -18 5 -13 8 -13 23 1 16 15 17 12 18 -47 1 -44 6 -66
16 -74 12 -8 15 -26 13 -68 -2 -31 0 -56 5 -56 4 0 8 32 8 71 0 56 -3 70 -14
66 -11 -4 -14 16 -18 96 -5 91 -4 104 13 120 23 22 24 27 4 27 -8 0 -14 -6
-12 -12z"/>
<path d="M424 510 c0 -32 4 -40 19 -40 13 0 17 -5 13 -15 -4 -12 2 -14 30 -11
44 6 57 16 21 16 -17 0 -27 5 -27 15 0 8 -7 15 -15 15 -10 0 -15 10 -15 30 0
19 -5 30 -14 30 -9 0 -13 -12 -12 -40z"/>
<path d="M2640 540 c0 -5 8 -13 17 -18 14 -8 17 -26 16 -108 -1 -63 1 -88 6
-69 4 17 6 44 3 60 -5 27 -4 29 12 16 13 -11 20 -11 28 -3 9 9 8 12 -5 12 -13
0 -17 9 -17 44 0 36 -4 45 -21 49 -12 3 -18 10 -14 16 3 6 -1 11 -9 11 -9 0
-16 -4 -16 -10z"/>
<path d="M362 507 c-24 -25 -28 -37 -12 -37 6 0 10 7 10 15 0 8 7 15 15 15 8
0 15 7 15 15 0 20 -3 19 -28 -8z"/>
<path d="M2470 279 c0 -17 4 -28 10 -24 6 3 10 17 10 31 0 13 -4 24 -10 24 -5
0 -10 -14 -10 -31z"/>
<path d="M2640 238 c0 -44 4 -68 9 -60 4 8 7 32 6 55 -2 27 3 48 13 60 14 16
13 17 -6 17 -21 0 -22 -5 -22 -72z"/>
<path d="M2850 135 c0 -8 -7 -15 -15 -15 -8 0 -15 -7 -15 -16 0 -12 6 -11 29
8 33 26 38 38 16 38 -8 0 -15 -7 -15 -15z"/>
<path d="M2971 95 c-1 -29 3 -45 8 -40 5 6 6 28 1 50 l-8 40 -1 -50z"/>
<path d="M90 110 c0 -5 7 -10 15 -10 8 0 15 -8 15 -17 0 -15 2 -16 10 -3 5 9
5 19 -2 27 -12 15 -38 17 -38 3z"/>
<path d="M2875 99 c-6 -19 -12 -20 -58 -14 -38 4 -48 3 -37 -4 24 -17 100 -14
100 4 0 8 7 15 16 15 8 0 12 5 9 10 -10 16 -23 12 -30 -11z"/>
<path d="M160 80 c-23 -7 -22 -8 10 -8 19 0 44 3 55 8 17 7 15 9 -10 8 -16 0
-41 -4 -55 -8z"/>
</g>
</svg>
